<svg width="612" height="527" viewBox="0 0 612 527" fill="none" xmlns="http://www.w3.org/2000/svg">
<path d="M56.5972 263.662C56.5972 263.662 50.857 268.889 39.7683 281.623C37.0089 278.133 34.3346 274.507 31.7796 270.71L0.114685 223.773L44.6398 220.742C99.8959 216.98 147.095 241.393 178.113 289.795L209.437 338.691L146.244 336.41C106.437 334.98 71.6376 318.21 45.0656 287.957L56.5972 263.662Z" fill="#9ECAFF"/>
<path d="M188.18 325.088C188.129 325.088 188.06 325.071 188.009 325.037L11.51 229.578C11.3397 229.476 11.2716 229.272 11.3738 229.101C11.476 228.931 11.6804 228.863 11.8507 228.965L188.35 324.424C188.52 324.526 188.588 324.731 188.486 324.901C188.435 325.02 188.316 325.088 188.18 325.088Z" fill="white"/>
<path d="M160.569 265.875C160.569 265.875 156.157 272.26 145.017 284.943C148.833 287.208 152.802 289.37 156.907 291.396L207.683 316.474L204.736 271.97C201.074 216.724 170.55 173.259 118.394 149.016L65.7101 124.534L76.4241 186.828C83.1693 226.071 104.461 258.282 138.017 280.568L160.569 265.875Z" fill="#54A0FF"/>
<path d="M200.682 306.105C200.58 306.105 200.461 306.054 200.393 305.952L82.1132 143.925C81.994 143.772 82.028 143.534 82.1984 143.432C82.3517 143.312 82.5901 143.346 82.6923 143.517L200.972 305.561C201.091 305.714 201.057 305.952 200.887 306.054C200.819 306.088 200.75 306.105 200.682 306.105Z" fill="white"/>
<g opacity="0.2">
<path opacity="0.2" d="M599.075 497.041C599.075 499.203 563.646 501.127 508.321 502.37C502.871 507.63 481.358 525.609 441.244 526.477C405.423 527.26 359.535 511.427 339.708 503.851C213.968 503.595 114.698 500.65 114.698 497.024C114.698 493.244 223.132 490.18 356.895 490.18C490.641 490.197 599.075 493.261 599.075 497.041Z" fill="#9ECAFF"/>
</g>
<path d="M581.275 345.025L545.028 345.382V345.025H581.275Z" fill="#F9F9FD"/>
<path d="M584.426 345.025L584.443 347.714L545.028 348.106V345.382L581.275 345.025H584.426Z" fill="#F8F8FD"/>
<path d="M584.801 491.848L584.307 489.141L583.83 486.417L583.336 483.71L582.859 481.003L582.365 478.279L581.888 475.572L581.394 472.848L580.9 470.141L580.423 467.417L579.929 464.71L579.452 461.986L578.958 459.279L578.482 456.555L577.988 453.848L577.511 451.124L577.017 448.417L576.54 445.71L576.046 442.986L575.569 440.279L575.075 437.555L574.581 434.848L574.104 432.124L573.61 429.417L573.133 426.693L572.639 423.986L572.162 421.262L571.668 418.556L571.191 415.832L570.697 413.125L570.22 410.418L569.726 407.694L569.232 404.987L568.756 402.263L568.262 399.556L567.785 396.832L567.291 394.125L566.814 391.401L566.32 388.694L565.843 385.97L565.349 383.263L564.872 380.539L564.378 377.832L563.884 375.125L563.407 372.401L562.913 369.694L562.436 366.97L561.942 364.263L561.465 361.539L560.971 358.832L560.494 356.108L560 353.401L559.523 350.677L559.03 347.97L545.198 348.106L545.829 350.83L546.459 353.537L547.106 356.244L547.736 358.968L548.367 361.675L549.014 364.382L549.644 367.106L550.274 369.813L550.905 372.537L551.552 375.244L552.182 377.951L552.812 380.675L553.46 383.382L554.09 386.089L554.72 388.813L555.35 391.52L555.998 394.227L556.628 396.951L557.258 399.658L557.905 402.382L558.536 405.089L559.166 407.796L559.796 410.52L560.443 413.227L561.074 415.934L561.704 418.658L562.351 421.365L562.981 424.089L563.611 426.796L564.242 429.503L564.889 432.227L565.519 434.934L566.149 437.641L566.797 440.365L567.427 443.072L568.057 445.796L568.687 448.502L569.335 451.209L569.965 453.933L570.595 456.64L571.242 459.347L571.873 462.071L572.503 464.778L573.133 467.502L573.78 470.209L574.411 472.916L575.041 475.64L575.688 478.347L576.318 481.054L576.949 483.778L577.579 486.485L578.226 489.209L578.856 491.916L579.333 493.959H585.176L584.801 491.848Z" fill="url(#paint0_linear_0_1)"/>
<path d="M463.83 346.131L463.813 346.216L463.353 348.94L462.893 351.664L462.433 354.388L461.973 357.112L461.514 359.836L461.054 362.56L460.577 365.284L460.117 368.008L459.657 370.732L459.197 373.456L458.737 376.18L458.277 378.904L457.817 381.628L457.357 384.352L456.898 387.076L456.438 389.8L455.978 392.524L455.518 395.248L455.058 397.972L454.598 400.713L454.138 403.437L453.678 406.161L453.218 408.885L452.741 411.609L452.282 414.333L451.822 417.057L451.362 419.781L450.902 422.505L450.442 425.229L449.982 427.953L449.522 430.677L449.062 433.401L448.602 436.125L448.142 438.849L447.683 441.573L447.223 444.297L446.763 447.021L446.303 449.745L445.843 452.469L445.383 455.193L444.906 457.917L444.446 460.641L443.986 463.365L443.526 466.089L443.067 468.813L442.607 471.537L442.147 474.261L441.687 476.985L441.227 479.709L440.767 482.433L440.307 485.157L439.847 487.881L439.387 490.605L438.962 493.142H445.179L445.758 490.554L446.371 487.83L446.984 485.089L447.597 482.365L448.211 479.641L448.824 476.917L449.437 474.193L450.05 471.469L450.663 468.745L451.277 466.021L451.89 463.28L452.503 460.556L453.116 457.832L453.729 455.108L454.343 452.384L454.956 449.66L455.569 446.936L456.165 444.212L456.778 441.488L457.392 438.747L458.005 436.023L458.618 433.299L459.231 430.575L459.844 427.851L460.457 425.127L461.071 422.403L461.684 419.679L462.297 416.938L462.91 414.214L463.523 411.49L464.137 408.766L464.75 406.042L465.363 403.318L465.976 400.594L466.589 397.87L467.203 395.129L467.816 392.405L468.429 389.681L469.042 386.957L469.655 384.233L470.269 381.509L470.882 378.785L471.495 376.061L472.108 373.337L472.721 370.596L473.335 367.872L473.948 365.148L474.561 362.424L475.174 359.7L475.787 356.976L476.401 354.252L477.014 351.528L477.627 348.787L477.729 348.327L464.358 346.216L463.83 346.131Z" fill="url(#paint1_linear_0_1)"/>
<path d="M501.133 346.863L501.116 348.549L501.099 351.273L501.082 353.997L501.065 356.721L501.048 359.445L501.014 362.152L500.997 364.876L500.98 367.6L500.963 370.324L500.946 373.031L500.912 375.755L500.895 378.479L500.878 381.203L500.861 383.91L500.844 386.634L500.81 389.358L500.793 392.082L500.775 394.789L500.758 397.513L500.741 400.237L500.707 402.961L500.69 405.685L500.673 408.392L500.656 411.116L500.639 413.84L500.605 416.564L500.588 419.271L500.571 421.995L500.554 424.719L500.537 427.443L500.52 430.15L500.486 432.874L500.469 435.598L500.452 438.322L500.435 441.029L500.418 443.753L500.384 446.477L500.367 449.201L500.35 451.925L500.333 454.632L500.316 457.356L500.282 460.08L500.264 462.804L500.247 465.51L500.23 468.234L500.213 470.958L500.179 473.682L500.162 476.389L500.145 479.113L500.128 481.837L500.111 484.561L500.094 487.268L500.06 489.992L500.043 492.716V493.874H506.26L506.328 492.648L506.516 489.924L506.686 487.2L506.873 484.493L507.044 481.769L507.231 479.045L507.401 476.321L507.589 473.597L507.759 470.873L507.947 468.149L508.117 465.442L508.304 462.718L508.475 459.994L508.662 457.27L508.832 454.546L509.02 451.822L509.19 449.098L509.377 446.391L509.548 443.667L509.735 440.943L509.905 438.219L510.093 435.495L510.263 432.771L510.45 430.047L510.621 427.34L510.808 424.616L510.978 421.892L511.166 419.168L511.336 416.444L511.524 413.72L511.694 410.996L511.881 408.289L512.052 405.565L512.239 402.841L512.409 400.117L512.597 397.393L512.767 394.669L512.954 391.945L513.125 389.238L513.312 386.514L513.482 383.79L513.67 381.066L513.84 378.342L514.027 375.618L514.198 372.894L514.385 370.188L514.555 367.464L514.743 364.74L514.913 362.016L515.101 359.292L515.271 356.568L515.458 353.844L515.629 351.137L515.765 349.059L511.66 348.447L501.133 346.863Z" fill="url(#paint2_linear_0_1)"/>
<path d="M570.237 224.351L529.783 223.585C514.044 223.296 499.481 231.91 492.105 245.888L437.974 348.413C433.034 357.776 439.779 369.047 450.323 369.047H461.394H463.609H465.823H468.037H470.252H472.466H474.68H476.895H479.109H481.323H483.538H485.752H487.966H490.181H492.395H494.609H496.824H499.038H501.252H503.467H505.681H507.895H510.11H512.324H514.538H516.753H518.967H521.181H523.396H525.61H527.824H530.039H532.253H534.467H536.188C577.647 369.047 611.254 335.252 611.254 293.558V271.017V266.335C611.237 243.453 593.011 224.777 570.237 224.351Z" fill="url(#paint3_linear_0_1)"/>
<path d="M532.389 349.843C532.168 349.843 531.998 349.672 531.964 349.451C531.947 349.213 532.117 349.008 532.338 348.991C549.814 347.357 564.77 334.861 569.539 317.887L574.956 298.665C575.024 298.444 575.245 298.308 575.484 298.376C575.705 298.444 575.841 298.665 575.773 298.904L570.357 318.125C567.955 326.689 563.083 334.214 556.27 339.9C549.474 345.586 541.213 349.025 532.406 349.843C532.406 349.826 532.389 349.843 532.389 349.843Z" fill="white"/>
<path d="M409.596 134.17C407.91 134.17 406.53 132.808 406.53 131.105V99.9667C406.53 98.2812 407.893 96.9022 409.596 96.9022C411.282 96.9022 412.662 98.2642 412.662 99.9667V131.105C412.645 132.791 411.282 134.17 409.596 134.17Z" fill="#382A73"/>
<path d="M409.596 202.968C407.91 202.968 406.53 201.606 406.53 199.903V147.909C406.53 146.224 407.893 144.845 409.596 144.845C411.282 144.845 412.662 146.207 412.662 147.909V199.903C412.645 201.589 411.282 202.968 409.596 202.968Z" fill="#382A73"/>
<path d="M390.314 493.346H171.061C162.153 493.346 154.931 486.128 154.931 477.224V20.0173C154.931 11.1132 162.153 3.89462 171.061 3.89462H390.314C399.223 3.89462 406.445 11.1132 406.445 20.0173V477.207C406.445 486.128 399.223 493.346 390.314 493.346Z" fill="#D8EAFF"/>
<path d="M171.061 496.309H390.314C400.841 496.309 409.426 487.745 409.426 477.207V470.124V462.889V455.653V448.417V441.182V433.946V426.711V419.475V412.239V405.004V397.768V390.532V383.297V376.061V368.826V361.59V354.354V347.034V339.798V332.562V325.327V318.091V310.855V303.62V296.384V289.149V281.913V274.677V267.442V260.206V252.97V245.735V238.499V231.264V223.943V216.707V209.472V202.236V195V187.765V180.529V173.293V166.058V158.822V151.587V144.351V137.115V129.88V122.644V115.323V108.088V100.852V93.6164V86.3808V79.1451V71.9095V64.6739V57.4382V50.2026V42.967V35.7314V28.4957V21.2601V20.0854C409.426 9.56393 400.858 0.983337 390.314 0.983337H248.376H171.078C160.552 0.983337 151.967 9.54691 151.967 20.0854V26.4868V33.7224V40.958V48.1937V55.3952V62.6309V69.8665V77.1021V84.3378V91.5734V98.809V106.045V113.28V120.516V127.752V134.987V142.223V149.458V156.694V163.93V171.165V178.401V185.637V192.872V200.108V207.343V214.579V221.815V229.05V236.286V243.522V250.757V257.993V265.228V272.464V279.7V286.935V294.171V301.407V308.642V315.878V323.113V330.349V337.585V344.82V352.056V359.292V366.527V373.763V380.998V388.234V395.47V402.705V409.941V417.177V424.412V431.648V438.883V446.119V453.355V460.59V467.826V475.062V476.9C151.967 487.745 160.535 496.309 171.061 496.309ZM157.894 20.0173C157.894 12.7646 163.805 6.85696 171.061 6.85696H390.314C397.571 6.85696 403.481 12.7646 403.481 20.0173V477.207C403.481 484.459 397.571 490.367 390.314 490.367H171.061C163.805 490.367 157.894 484.459 157.894 477.207V20.0173Z" fill="#9ECAFF"/>
<path d="M222.093 165.939C222.485 165.394 222.877 164.849 223.285 164.321C223.694 163.776 224.12 163.232 224.546 162.704C224.989 162.159 225.432 161.614 225.875 161.086C226.334 160.542 226.794 159.997 227.271 159.469C227.765 158.924 228.242 158.379 228.753 157.852C229.264 157.307 229.792 156.762 230.32 156.234C230.865 155.69 231.427 155.145 231.99 154.617C232.569 154.072 233.165 153.527 233.761 153C234.374 152.455 235.004 151.91 235.652 151.382C236.316 150.82 236.997 150.293 237.679 149.748C238.394 149.186 239.126 148.641 239.859 148.113C240.625 147.552 241.426 147.007 242.21 146.479C243.061 145.917 243.913 145.372 244.782 144.845C245.718 144.283 246.655 143.738 247.626 143.21C248.665 142.631 249.721 142.087 250.794 141.559C251.987 140.98 253.196 140.418 254.422 139.907C255.836 139.311 257.284 138.75 258.749 138.239C260.572 137.609 262.411 137.047 264.285 136.553C267.215 135.787 270.212 135.208 273.261 134.8C276.31 134.408 279.393 134.204 282.545 134.204C284.844 134.204 287.109 134.306 289.358 134.527C292.424 134.817 295.439 135.294 298.386 135.958C300.276 136.383 302.133 136.877 303.973 137.456C305.454 137.915 306.902 138.426 308.35 138.971C309.594 139.448 310.82 139.958 312.046 140.503C313.136 140.997 314.21 141.508 315.266 142.035C316.237 142.529 317.207 143.04 318.144 143.585C319.03 144.078 319.899 144.606 320.767 145.134C321.585 145.628 322.386 146.155 323.169 146.683C323.919 147.194 324.668 147.705 325.4 148.233C326.099 148.743 326.797 149.254 327.479 149.782C328.126 150.293 328.773 150.803 329.42 151.348C330.034 151.859 330.647 152.387 331.243 152.914C331.822 153.425 332.401 153.953 332.963 154.481C333.508 154.991 334.053 155.519 334.581 156.047C335.092 156.558 335.603 157.086 336.114 157.613C336.608 158.124 337.085 158.652 337.562 159.18C338.022 159.69 338.482 160.218 338.942 160.746C339.385 161.257 339.811 161.784 340.254 162.312C340.679 162.823 341.088 163.351 341.497 163.879C341.889 164.389 342.298 164.917 342.672 165.445C342.996 165.887 343.303 166.33 343.626 166.773C354.34 153.408 360.745 136.434 360.745 117.979C360.745 74.8378 325.758 39.8684 282.596 39.8684C239.433 39.8684 204.447 74.8378 204.447 117.979C204.447 136.434 210.851 153.408 221.565 166.773C221.684 166.5 221.889 166.228 222.093 165.939Z" fill="white"/>
<path d="M341.837 164.406C341.429 163.879 341.02 163.351 340.594 162.84C340.168 162.312 339.725 161.784 339.282 161.274C338.823 160.746 338.38 160.218 337.903 159.707C337.426 159.18 336.949 158.652 336.455 158.141C335.944 157.613 335.45 157.086 334.922 156.575C334.394 156.047 333.849 155.519 333.304 155.008C332.742 154.481 332.163 153.953 331.583 153.442C330.987 152.914 330.374 152.387 329.761 151.876C329.131 151.348 328.483 150.82 327.819 150.31C327.138 149.782 326.439 149.254 325.741 148.76C325.009 148.233 324.259 147.705 323.51 147.211C322.726 146.683 321.908 146.155 321.108 145.662C320.239 145.134 319.371 144.606 318.485 144.112C317.531 143.585 316.577 143.057 315.606 142.563C314.55 142.018 313.477 141.508 312.387 141.031C311.177 140.486 309.951 139.975 308.691 139.499C307.26 138.954 305.795 138.443 304.313 137.983C302.473 137.405 300.617 136.911 298.726 136.485C295.779 135.821 292.764 135.345 289.698 135.055C287.45 134.851 285.185 134.732 282.885 134.732C279.751 134.732 276.651 134.936 273.602 135.328C270.553 135.719 267.555 136.315 264.625 137.081C262.752 137.575 260.912 138.137 259.09 138.767C257.625 139.277 256.194 139.839 254.763 140.435C253.537 140.946 252.327 141.508 251.135 142.087C250.062 142.614 249.006 143.159 247.967 143.738C247.013 144.266 246.059 144.811 245.122 145.372C244.254 145.9 243.402 146.445 242.55 147.007C241.75 147.535 240.966 148.079 240.2 148.641C239.467 149.169 238.735 149.714 238.019 150.276C237.338 150.803 236.657 151.348 235.992 151.91C235.362 152.438 234.732 152.983 234.102 153.527C233.505 154.055 232.909 154.6 232.33 155.145C231.768 155.672 231.206 156.217 230.661 156.762C230.133 157.29 229.605 157.835 229.094 158.379C228.6 158.907 228.106 159.452 227.612 159.997C227.135 160.525 226.675 161.069 226.215 161.614C225.772 162.142 225.329 162.687 224.887 163.232C224.461 163.759 224.035 164.304 223.626 164.849C223.217 165.377 222.826 165.922 222.434 166.466C222.229 166.756 222.025 167.045 221.838 167.318C236.163 185.194 258.17 196.635 282.868 196.635C307.566 196.635 329.573 185.194 343.898 167.318C343.592 166.875 343.268 166.432 342.945 165.99C342.621 165.445 342.229 164.917 341.837 164.406Z" fill="url(#paint4_linear_0_1)"/>
<path d="M304.841 105.585C304.841 105.057 304.824 104.512 304.79 103.985C304.756 103.457 304.705 102.912 304.62 102.401C304.551 101.873 304.449 101.329 304.347 100.818C304.228 100.29 304.109 99.7454 303.955 99.2346C303.802 98.7068 303.632 98.162 303.444 97.6513C303.257 97.1065 303.036 96.5787 302.797 96.068C302.559 95.5232 302.286 94.9954 302.014 94.4846C301.724 93.9398 301.4 93.4121 301.077 92.9013C300.719 92.3565 300.344 91.8287 299.953 91.335C299.527 90.7902 299.084 90.2624 298.607 89.7687C298.096 89.2239 297.568 88.6961 297.006 88.2024C296.375 87.6406 295.728 87.1298 295.047 86.6361C294.246 86.0743 293.412 85.5465 292.543 85.0868C291.402 84.4739 290.209 83.9632 288.983 83.5546C286.667 82.7885 284.197 82.3628 281.625 82.3628C278.78 82.3628 276.038 82.8736 273.517 83.81C272.29 84.2696 271.115 84.8144 270.008 85.4614C269.156 85.9551 268.339 86.4999 267.555 87.0958C266.891 87.6065 266.244 88.1513 265.647 88.7131C265.102 89.2239 264.591 89.7687 264.097 90.3305C263.654 90.8413 263.212 91.3861 262.82 91.9479C262.445 92.4757 262.087 93.0034 261.747 93.5653C261.423 94.093 261.134 94.6208 260.861 95.1656C260.606 95.6934 260.35 96.2212 260.129 96.766C259.907 97.2938 259.72 97.8215 259.532 98.3663C259.362 98.8941 259.209 99.4219 259.073 99.9667C258.936 100.494 258.834 101.022 258.732 101.567C258.647 102.095 258.561 102.623 258.51 103.167C258.459 103.695 258.425 104.223 258.408 104.768C258.391 105.04 258.391 105.295 258.391 105.568C258.391 105.84 258.391 106.096 258.408 106.368C258.425 106.896 258.459 107.441 258.51 107.951C258.561 108.479 258.647 109.024 258.732 109.535C258.817 110.063 258.936 110.607 259.073 111.118C259.209 111.646 259.362 112.191 259.515 112.701C259.686 113.246 259.873 113.774 260.095 114.285C260.316 114.83 260.554 115.357 260.81 115.868C261.082 116.413 261.372 116.941 261.679 117.451C262.002 117.996 262.343 118.524 262.701 119.035C263.092 119.579 263.501 120.107 263.927 120.601C264.387 121.146 264.881 121.674 265.392 122.167C265.954 122.712 266.55 123.24 267.163 123.734C267.862 124.295 268.594 124.806 269.361 125.283C270.297 125.862 271.268 126.372 272.29 126.832C273.806 127.496 275.425 128.007 277.094 128.347C278.559 128.637 280.075 128.79 281.625 128.79C283.447 128.79 285.236 128.586 286.939 128.177C288.591 127.786 290.192 127.224 291.691 126.509C292.696 126.032 293.65 125.487 294.553 124.874C295.302 124.381 296.018 123.836 296.699 123.24C297.295 122.729 297.874 122.184 298.42 121.622C298.913 121.112 299.39 120.567 299.833 120.005C300.242 119.477 300.634 118.95 301.009 118.388C301.349 117.86 301.673 117.332 301.979 116.77C302.269 116.243 302.542 115.715 302.78 115.17C303.019 114.642 303.24 114.114 303.444 113.57C303.632 113.042 303.819 112.514 303.972 111.969C304.126 111.442 304.262 110.914 304.364 110.369C304.466 109.841 304.569 109.313 304.637 108.769C304.705 108.241 304.756 107.713 304.807 107.168C304.824 106.64 304.841 106.113 304.841 105.585Z" fill="#54A0FF"/>
<path d="M331.532 350.558C331.294 348.498 330.698 346.54 329.795 344.769C329.335 343.85 328.79 342.982 328.16 342.164C327.666 341.517 327.138 340.904 326.559 340.343C326.065 339.849 325.52 339.389 324.974 338.964C324.463 338.572 323.935 338.215 323.39 337.874C322.879 337.568 322.351 337.295 321.823 337.04C321.312 336.801 320.784 336.58 320.256 336.393C319.745 336.206 319.217 336.052 318.689 335.933C318.178 335.814 317.667 335.712 317.139 335.627C316.628 335.559 316.117 335.491 315.589 335.474C315.265 335.456 314.925 335.439 314.601 335.439H314.039H312.489H310.939H309.389H307.839H306.289H304.739H303.189H301.639H300.089H298.539H296.989H295.439H293.889H292.339H290.789H289.239H287.688H286.138H284.588H283.038H281.488H279.938H278.388H276.838H275.288H273.738H272.188H270.638H269.088H267.538H265.988H264.438H262.888H261.338H259.788H258.238H256.688H255.138H253.588H252.038H250.488H248.938H248.478C248.103 335.439 247.745 335.456 247.388 335.474C246.86 335.508 246.349 335.559 245.838 335.644C245.31 335.729 244.799 335.831 244.305 335.95C243.777 336.086 243.266 336.24 242.772 336.41C242.244 336.597 241.733 336.801 241.239 337.04C240.711 337.278 240.217 337.551 239.723 337.857C239.195 338.163 238.701 338.504 238.207 338.879C237.679 339.27 237.185 339.696 236.708 340.155C236.18 340.666 235.669 341.211 235.209 341.773C234.664 342.454 234.17 343.169 233.727 343.918C232.262 346.438 231.41 349.366 231.41 352.481C231.41 355.989 232.466 359.257 234.306 361.981C234.8 362.696 235.328 363.395 235.924 364.024C236.418 364.569 236.963 365.08 237.525 365.557C238.036 365.982 238.564 366.374 239.109 366.731C239.62 367.072 240.148 367.378 240.694 367.651C241.205 367.906 241.733 368.144 242.261 368.366C242.772 368.57 243.3 368.74 243.828 368.894C244.339 369.047 244.867 369.166 245.395 369.251C245.906 369.353 246.417 369.421 246.945 369.455C247.456 369.506 247.967 369.524 248.495 369.524H250.045H251.595H253.145H254.695H256.245H257.795H259.345H260.895H262.445H263.995H265.545H267.095H268.645H270.195H271.745H273.295H274.845H276.395H277.945H279.495H281.045H282.596H284.146H285.696H287.246H288.796H290.346H291.896H293.446H294.996H296.546H298.096H299.646H301.196H302.746H304.296H305.846H307.396H308.946H310.496H312.046H313.596H314.601C314.771 369.524 314.959 369.524 315.129 369.506C315.657 369.489 316.168 369.455 316.679 369.387C317.207 369.319 317.718 369.234 318.212 369.132C318.74 369.013 319.251 368.877 319.745 368.723C320.273 368.553 320.784 368.366 321.278 368.162C321.806 367.94 322.3 367.685 322.794 367.412C323.322 367.123 323.816 366.817 324.31 366.476C324.838 366.119 325.332 365.71 325.826 365.301C326.354 364.842 326.865 364.348 327.325 363.82C327.87 363.224 328.364 362.577 328.807 361.896C329.369 361.045 329.863 360.143 330.272 359.206C331.055 357.385 331.532 355.41 331.634 353.316C331.652 353.043 331.652 352.754 331.652 352.481C331.635 351.835 331.6 351.188 331.532 350.558Z" fill="#397EF6"/>
<path d="M384.438 267.391H178.437C173.667 267.391 169.801 263.526 169.801 258.759V238.584C169.801 233.817 173.667 229.953 178.437 229.953H384.438C389.207 229.953 393.074 233.817 393.074 238.584V258.742C393.074 263.509 389.207 267.391 384.438 267.391Z" fill="white"/>
<path d="M384.438 315.622H178.437C173.667 315.622 169.801 311.758 169.801 306.991V286.833C169.801 282.066 173.667 278.201 178.437 278.201H384.438C389.207 278.201 393.074 282.066 393.074 286.833V306.991C393.074 311.741 389.207 315.622 384.438 315.622Z" fill="white"/>
<path d="M188.146 302.292C190.93 302.292 193.188 300.036 193.188 297.252C193.188 294.469 190.93 292.213 188.146 292.213C185.361 292.213 183.104 294.469 183.104 297.252C183.104 300.036 185.361 302.292 188.146 302.292Z" fill="#397EF6"/>
<path d="M206.882 302.326C209.667 302.326 211.924 300.07 211.924 297.286C211.924 294.503 209.667 292.247 206.882 292.247C204.098 292.247 201.84 294.503 201.84 297.286C201.84 300.07 204.098 302.326 206.882 302.326Z" fill="#397EF6"/>
<path d="M225.602 302.292C228.387 302.292 230.644 300.036 230.644 297.252C230.644 294.469 228.387 292.213 225.602 292.213C222.817 292.213 220.56 294.469 220.56 297.252C220.56 300.036 222.817 302.292 225.602 302.292Z" fill="#397EF6"/>
<path d="M244.356 302.292C247.14 302.292 249.398 300.036 249.398 297.252C249.398 294.469 247.14 292.213 244.356 292.213C241.571 292.213 239.314 294.469 239.314 297.252C239.314 300.036 241.571 302.292 244.356 302.292Z" fill="#397EF6"/>
<path d="M263.058 302.326C265.843 302.326 268.1 300.07 268.1 297.286C268.1 294.503 265.843 292.247 263.058 292.247C260.274 292.247 258.016 294.503 258.016 297.286C258.016 300.07 260.274 302.326 263.058 302.326Z" fill="#397EF6"/>
<path d="M281.778 302.292C284.562 302.292 286.82 300.036 286.82 297.252C286.82 294.469 284.562 292.213 281.778 292.213C278.993 292.213 276.736 294.469 276.736 297.252C276.736 300.036 278.993 302.292 281.778 302.292Z" fill="#397EF6"/>
<path d="M300.515 302.326C303.299 302.326 305.556 300.07 305.556 297.286C305.556 294.503 303.299 292.247 300.515 292.247C297.73 292.247 295.473 294.503 295.473 297.286C295.473 300.07 297.73 302.326 300.515 302.326Z" fill="#397EF6"/>
<path d="M279.274 252.987H187.447C185.063 252.987 183.121 251.047 183.121 248.663C183.121 246.279 185.063 244.339 187.447 244.339H279.274C281.659 244.339 283.6 246.279 283.6 248.663C283.6 251.047 281.659 252.987 279.274 252.987Z" fill="#397EF6"/>
<path d="M349.145 252.987H298.368C295.984 252.987 294.042 251.047 294.042 248.663C294.042 246.279 295.984 244.339 298.368 244.339H349.145C351.529 244.339 353.471 246.279 353.471 248.663C353.454 251.047 351.529 252.987 349.145 252.987Z" fill="#397EF6"/>
<path d="M460.713 173.787C461.02 174.281 461.428 174.792 461.991 174.86C462.774 174.945 463.336 174.128 463.677 173.413C465.261 170.076 466.096 166.364 466.062 162.653C466.045 160.491 465.704 158.226 464.392 156.541C463.404 155.247 461.701 154.379 460.049 154.566C458.447 154.753 458.26 155.996 457.936 157.409C457.136 160.933 457.238 164.662 458.192 168.152C458.771 170.127 459.606 172.051 460.713 173.787Z" fill="#005BCB"/>
<g opacity="0.99">
<path opacity="0.99" d="M426.033 291.787L447.921 222.308C449.011 218.835 451.805 216.145 455.331 215.192L496.074 204.177L542.405 207.105C544.704 207.514 546.731 208.91 547.924 210.919L582.059 274.507C588.037 284.637 580.508 297.389 568.738 297.065L561.874 296.878L560.869 304.624L527.688 310.072L481.732 311.962L474.766 309.8L429.593 296.044L426.033 291.787Z" fill="white"/>
</g>
<path d="M554.55 223.585C554.431 223.585 554.328 223.517 554.277 223.415L547.651 211.055C546.51 209.131 544.585 207.786 542.371 207.394L506.277 205.113C506.107 205.096 505.971 204.96 505.988 204.79C506.005 204.619 506.141 204.483 506.311 204.5L542.422 206.782C542.439 206.782 542.439 206.782 542.456 206.782C544.858 207.207 546.953 208.654 548.179 210.748L554.822 223.109C554.907 223.262 554.839 223.449 554.686 223.534C554.652 223.568 554.601 223.585 554.55 223.585Z" fill="#0072FF"/>
<path d="M435.112 263.236C435.078 263.236 435.044 263.236 435.01 263.219C434.839 263.168 434.754 262.998 434.805 262.828L447.614 222.206C448.756 218.614 451.6 215.873 455.245 214.885L478.564 208.586C478.734 208.535 478.905 208.637 478.939 208.808C478.99 208.978 478.888 209.148 478.717 209.199L455.399 215.498C451.958 216.435 449.267 219.005 448.211 222.41L435.402 263.032C435.368 263.151 435.248 263.236 435.112 263.236Z" fill="#0072FF"/>
<path d="M464.324 260.683C464.188 260.683 464.052 260.581 464.018 260.444L459.998 242.313C459.964 242.142 460.066 241.972 460.236 241.938C460.407 241.904 460.577 242.006 460.611 242.177L464.631 260.308C464.665 260.478 464.563 260.649 464.392 260.683C464.358 260.683 464.341 260.683 464.324 260.683Z" fill="#0072FF"/>
<path d="M505.511 208.995C503.825 212.706 500.282 215.481 496.364 216.639C492.446 217.797 488.001 217.014 484.56 214.817C483.027 211.327 482.482 209.437 481.255 205.828C475.379 205.539 470.456 200.959 467.799 195.715C465.142 190.472 464.239 184.547 462.876 178.827C462.042 175.336 461.02 171.761 460.543 168.22C460.134 165.172 460.117 162.142 460.969 159.197C462.927 152.353 469.485 147.364 476.52 146.241C483.248 145.168 490.351 145.577 495.666 149.867C500.827 154.038 503.859 160.712 503.62 167.335C503.62 167.522 503.603 167.692 503.603 167.879C503.28 173.038 502.309 177.907 500.878 182.861C499.941 186.096 501.508 189.723 501.968 193.059C502.82 199.103 504.097 203.07 505.511 208.995Z" fill="#FCC5B6"/>
<path d="M478.513 192.583C478.36 192.583 478.224 192.464 478.207 192.293C478.19 192.123 478.309 191.97 478.479 191.953C481.92 191.612 485.173 190.097 487.626 187.645C487.745 187.526 487.949 187.526 488.068 187.645C488.188 187.765 488.188 187.969 488.068 188.088C485.514 190.625 482.124 192.225 478.53 192.566C478.547 192.583 478.53 192.583 478.513 192.583Z" fill="#1A1A1A"/>
<path d="M485.526 178.093C486.203 177.98 486.603 176.994 486.42 175.89C486.236 174.787 485.538 173.983 484.861 174.096C484.183 174.209 483.783 175.195 483.967 176.298C484.15 177.402 484.848 178.205 485.526 178.093Z" fill="#1A1A1A"/>
<path d="M469.773 181.408C470.446 181.271 470.811 180.271 470.587 179.175C470.364 178.079 469.637 177.301 468.964 177.438C468.291 177.575 467.927 178.575 468.15 179.671C468.374 180.767 469.1 181.545 469.773 181.408Z" fill="#1A1A1A"/>
<path d="M508.338 301.56C508.185 301.56 508.049 301.458 508.032 301.287C506.362 290.596 503.91 279.955 501.542 269.655C498.101 254.707 494.541 239.248 493.485 223.875C493.468 223.704 493.605 223.551 493.775 223.534C493.945 223.517 494.099 223.653 494.116 223.824C495.172 239.146 498.732 254.588 502.155 269.502C504.523 279.802 506.976 290.459 508.662 301.168C508.696 301.338 508.577 301.492 508.406 301.526C508.372 301.543 508.355 301.56 508.338 301.56Z" fill="#0072FF"/>
<path d="M401.284 432.976L397.536 469.222L415.66 467.349L419.101 435.785C412.287 437.555 408.012 435.138 401.284 432.976Z" fill="#FCC5B6"/>
<path d="M470.201 316.388L454.53 318.431L424.858 322.977C415.524 324.084 408.268 331.626 407.535 340.99L400.109 436.21C406.82 438.39 414.178 438.628 420.991 436.857L435.981 351.119L467.867 340.802L527.893 317.989L470.201 316.388Z" fill="#003A82"/>
<path d="M490.079 469.835L489.772 432.346C488.852 432.737 488.409 433.452 487.592 433.912C483.879 435.972 482.107 433.725 477.9 434.219C475.686 434.474 472.262 436.551 469.451 436.091L471.325 472.337L490.079 469.835Z" fill="#FCC5B6"/>
<path d="M476.673 439.19C480.881 438.696 485.003 437.402 488.716 435.359C489.551 434.899 490.453 434.406 491.39 434.014L494.456 350.813L539.152 340.189C552.574 337.057 561.908 324.833 561.38 311.06L561.039 302.07L531.827 307.57C527.092 308.455 522.306 309.085 517.485 309.425L481.783 311.979L483.487 320.338C471.648 322.024 463.047 332.477 463.677 344.412L468.582 438.287C471.376 438.713 474.459 439.445 476.673 439.19Z" fill="#003A82"/>
<path d="M528.318 290.647L516.77 287.889L511.081 284.586C509.99 285.948 507.981 286.135 506.652 285.011L492.923 273.417C492.923 273.417 485.599 276.669 482.26 275.648C478.922 274.626 479.211 274.064 479.211 274.064C482.022 272.702 491.322 268.378 495.836 265.075C497.181 264.088 498.425 263.339 499.481 262.76C501.746 261.517 504.557 261.772 506.584 263.39L518.797 273.111C518.797 273.111 523.379 273.673 529.494 274.371" fill="#FCC5B6"/>
<path d="M452.571 316.048L531.606 312.694L531.504 314.073C531.35 316.235 529.596 317.921 527.433 318.006L448.926 320.9L452.571 316.048Z" fill="url(#paint5_linear_0_1)"/>
<path d="M463.881 341.262C463.728 341.262 463.592 341.143 463.575 340.99C462.859 336.257 463.881 331.183 466.402 327.114C468.906 323.028 472.96 319.828 477.525 318.329C477.695 318.278 477.866 318.363 477.917 318.534C477.968 318.704 477.883 318.874 477.712 318.925C473.301 320.372 469.366 323.488 466.93 327.438C464.494 331.405 463.489 336.308 464.188 340.904C464.222 341.075 464.103 341.228 463.932 341.262C463.915 341.262 463.898 341.262 463.881 341.262Z" fill="white"/>
<path d="M485.122 291.311L482.363 278.593L479.927 267.339C479.859 267.033 479.756 266.761 479.62 266.488C479.109 265.45 478.172 264.667 477.048 264.377C476.69 264.275 476.299 264.224 475.907 264.241L474.51 264.275L471.972 264.343L469.434 264.411L466.896 264.479L464.358 264.547L461.82 264.615L459.282 264.684L456.744 264.752L454.206 264.82L451.668 264.888L449.131 264.956L446.593 265.024L444.055 265.092L441.517 265.16L438.979 265.228L436.441 265.296L433.903 265.365L431.365 265.433L428.827 265.501L426.289 265.569L423.751 265.637L421.213 265.705L418.675 265.773L416.137 265.841L413.599 265.909L411.061 265.977L408.523 266.046L405.985 266.114L403.447 266.182L400.909 266.25L398.371 266.318L395.833 266.386L393.295 266.454L392.205 266.488C391.694 266.505 391.2 266.607 390.757 266.795C389.003 267.527 387.93 269.485 388.424 271.46L391.013 281.777L393.738 292.605L396.463 303.432L399.189 314.26L400.33 318.789C400.585 319.811 401.13 320.696 401.846 321.36C402.544 322.024 403.43 322.483 404.401 322.688C404.827 322.773 405.27 322.807 405.712 322.79L406.939 322.739L409.477 322.637L412.015 322.535L414.553 322.432L417.091 322.33L419.629 322.228L422.167 322.126L424.705 322.024L427.243 321.922L429.781 321.819L432.319 321.717L434.857 321.615L437.395 321.513L439.932 321.411L442.47 321.309L445.008 321.207L447.546 321.104L450.084 321.002L452.622 320.9L455.16 320.798L457.698 320.696L460.236 320.594L462.774 320.492L465.312 320.389L467.85 320.287L470.388 320.185L472.926 320.083L475.464 319.981L478.002 319.879L480.54 319.776L483.078 319.674L485.616 319.572L491.22 319.351L485.122 291.311Z" fill="url(#paint6_linear_0_1)"/>
<path d="M439.711 295.669C440.631 294.171 440.886 292.213 440.12 290.63C438.4 287.02 432.659 288.008 432.557 292.043C432.455 296.078 436.901 300.3 439.711 295.669Z" fill="white"/>
<path d="M471.308 467.656L457.545 486.724L441.159 501.723C439.83 502.931 438.927 504.549 438.604 506.319C438.042 509.401 440.205 512.312 443.322 512.636L448.722 513.214C456.642 514.066 464.614 512.074 471.206 507.613L489.976 494.93C492.31 493.346 493.536 490.571 493.11 487.779L490.044 467.349L486.944 468.813C481.92 471.197 475.975 470.754 471.308 467.656Z" fill="#0072FF"/>
<path d="M398.797 457.662L385.034 476.73L368.648 491.729C367.319 492.938 366.416 494.555 366.093 496.326C365.531 499.407 367.694 502.319 370.811 502.642L376.211 503.221C384.131 504.072 392.103 502.08 398.695 497.62L417.465 484.936C419.799 483.353 421.025 480.578 420.6 477.786L417.534 457.356L414.433 458.82C409.392 461.203 403.447 460.761 398.797 457.662Z" fill="#0072FF"/>
<path d="M493.485 273.809C493.4 273.809 493.298 273.775 493.247 273.69C493.145 273.553 493.162 273.366 493.298 273.247C495.717 271.289 498.272 269.417 500.895 267.697C501.031 267.595 501.235 267.646 501.321 267.782C501.423 267.918 501.372 268.123 501.235 268.208C498.646 269.91 496.108 271.766 493.69 273.724C493.638 273.775 493.553 273.809 493.485 273.809Z" fill="#1A1A1A"/>
<path d="M497.982 277.588C497.897 277.588 497.812 277.554 497.743 277.469C497.624 277.333 497.641 277.146 497.777 277.027L504.642 271.255C504.778 271.153 504.966 271.153 505.085 271.289C505.204 271.426 505.187 271.613 505.051 271.732L498.186 277.503C498.118 277.554 498.05 277.588 497.982 277.588Z" fill="#1A1A1A"/>
<path d="M501.712 280.925C501.627 280.925 501.542 280.891 501.474 280.823C501.354 280.687 501.371 280.5 501.491 280.381C503.688 278.372 506.107 276.567 508.662 275.035C508.815 274.95 509.003 275.001 509.088 275.137C509.173 275.29 509.122 275.477 508.986 275.563C506.465 277.078 504.08 278.848 501.917 280.823C501.865 280.891 501.78 280.925 501.712 280.925Z" fill="#1A1A1A"/>
<path d="M513.04 284.688C512.937 284.688 512.835 284.637 512.784 284.552C512.699 284.398 512.733 284.211 512.886 284.126C513.21 283.922 513.295 283.564 513.312 283.326C513.346 282.798 513.091 282.236 512.699 281.93C512.035 281.385 510.825 281.351 509.871 281.317L509.565 281.3C509.428 281.3 509.326 281.215 509.275 281.079C509.241 280.959 509.275 280.823 509.377 280.738L512.801 277.963C512.937 277.861 513.125 277.878 513.244 278.014C513.363 278.15 513.329 278.338 513.193 278.457L510.416 280.721C511.353 280.772 512.392 280.891 513.091 281.453C513.636 281.896 513.976 282.645 513.942 283.377C513.908 283.939 513.653 284.398 513.227 284.671C513.159 284.671 513.091 284.688 513.04 284.688Z" fill="#1A1A1A"/>
<path d="M469.094 335.354C468.957 335.354 468.821 335.252 468.787 335.116C468.753 334.946 468.855 334.776 469.008 334.741C472.5 333.873 476.23 333.686 479.79 334.231C479.961 334.265 480.08 334.418 480.046 334.588C480.012 334.758 479.859 334.878 479.688 334.844C476.213 334.316 472.568 334.486 469.145 335.337C469.145 335.354 469.128 335.354 469.094 335.354Z" fill="white"/>
<path d="M421.605 334.588C421.571 334.588 421.537 334.588 421.503 334.571C418.402 333.584 414.979 333.516 411.844 334.367C411.674 334.418 411.504 334.316 411.453 334.146C411.402 333.975 411.504 333.805 411.674 333.754C414.928 332.869 418.471 332.954 421.69 333.958C421.86 334.009 421.945 334.18 421.894 334.35C421.86 334.503 421.724 334.588 421.605 334.588Z" fill="white"/>
<path d="M463.796 171.182C463.302 171.404 462.706 171.812 462.859 172.34C463.013 172.851 463.711 172.902 464.239 172.817C466.3 172.51 468.31 171.88 470.183 170.961C472.04 170.042 470.728 168.765 469.213 169.224C467.39 169.786 465.533 170.416 463.796 171.182Z" fill="#005BCB"/>
<path d="M501.9 316.899C501.576 316.899 501.235 316.848 500.912 316.695C500.605 316.525 500.349 316.201 500.281 315.844C500.23 315.554 500.281 315.282 500.452 315.078C500.554 314.941 500.758 314.924 500.894 315.027C501.031 315.129 501.048 315.333 500.946 315.469C500.895 315.537 500.877 315.622 500.894 315.725C500.929 315.895 501.048 316.065 501.201 316.15C501.542 316.337 502.002 316.286 502.376 316.252L505.409 315.997C505.579 315.98 505.732 316.116 505.749 316.286C505.766 316.457 505.63 316.61 505.46 316.627L502.428 316.882C502.274 316.882 502.087 316.899 501.9 316.899Z" fill="white"/>
<path d="M459.18 155.877C459.18 155.877 460.1 158.516 475.26 158.277C481.903 158.175 485.769 158.073 488.001 157.988C489.925 157.92 491.748 158.89 492.77 160.525L499.157 170.842L503.603 169.837C503.603 169.837 503.978 162.959 504.813 158.958C505.647 154.975 506.499 148.471 499.464 141.882C492.446 135.294 479.876 134.919 474.953 136.485C470.013 138.052 462.399 140.844 459.504 146.139C456.608 151.45 459.18 155.877 459.18 155.877Z" fill="#005BCB"/>
<path d="M477.082 172.374C476.571 172.136 476.009 172.016 475.464 171.88C474.936 171.761 474.34 171.676 473.931 172.017C473.59 172.323 473.539 172.834 473.522 173.293C473.403 176.034 473.301 178.775 473.181 181.533C473.147 182.334 473.113 183.168 473.403 183.917C473.761 184.853 474.629 185.585 475.6 185.756C476.588 185.926 477.661 185.517 478.258 184.734C478.734 184.104 478.905 183.304 479.024 182.538C479.467 179.644 479.348 176.392 478.326 173.617C478.138 173.038 477.644 172.646 477.082 172.374Z" fill="#FCC5B6"/>
<path d="M483.521 205.641C483.35 205.641 483.214 205.505 483.214 205.351C483.197 205.181 483.333 205.028 483.504 205.028C490.3 204.619 496.67 199.886 499.021 193.502C499.072 193.332 499.26 193.264 499.43 193.315C499.6 193.366 499.668 193.553 499.617 193.723C497.181 200.329 490.572 205.232 483.555 205.658C483.538 205.641 483.538 205.641 483.521 205.641Z" fill="#1A1A1A"/>
<path d="M504.472 169.31C506.192 170.093 507.401 171.795 507.827 173.651C508.236 175.49 507.929 177.464 507.163 179.184C506.43 180.852 505.221 182.419 503.552 183.151C501.883 183.883 499.702 183.628 498.51 182.231C497.897 181.499 497.59 180.563 497.403 179.644C496.807 176.766 497.13 173.719 498.272 171.029C499.157 168.935 502.445 168.373 504.472 169.31Z" fill="#FCC5B6"/>
<path d="M503.688 177.294C503.586 177.294 503.484 177.243 503.416 177.141C502.717 175.932 501.746 174.877 500.622 174.042C500.486 173.94 500.452 173.753 500.554 173.6C500.656 173.464 500.844 173.43 500.997 173.532C502.189 174.4 503.211 175.541 503.961 176.818C504.046 176.971 503.995 177.158 503.842 177.243C503.808 177.277 503.739 177.294 503.688 177.294Z" fill="#1A1A1A"/>
<path d="M475.873 185.943C474.749 185.943 473.642 185.245 473.182 184.189C472.875 183.44 472.892 182.64 472.909 181.925L473.165 172.646C473.165 172.476 473.301 172.34 473.471 172.34C473.471 172.34 473.471 172.34 473.488 172.34C473.659 172.34 473.795 172.493 473.795 172.663L473.539 181.942C473.522 182.589 473.505 183.338 473.761 183.951C474.17 184.904 475.328 185.5 476.333 185.262C476.503 185.228 476.673 185.33 476.708 185.5C476.742 185.671 476.639 185.841 476.469 185.875C476.282 185.926 476.077 185.943 475.873 185.943Z" fill="#1A1A1A"/>
<path d="M487.523 164.849C487.83 164.832 488.171 164.832 488.409 165.019C488.682 165.241 488.733 165.683 488.58 166.007C488.443 166.33 488.154 166.568 487.847 166.773C486.416 167.726 484.645 167.982 482.941 168.203C481.834 168.339 480.744 168.475 479.637 168.611C478.853 168.714 477.082 168.68 477.525 167.437C477.831 166.568 479.603 166.262 480.335 166.041C482.686 165.377 485.105 164.968 487.523 164.849Z" fill="#005BCB"/>
<g opacity="0.99">
<path opacity="0.99" d="M520.381 272.345C523.583 277.776 524.213 284.654 522.05 290.579C525.303 291.26 528.267 292.434 531.521 293.115C533.803 293.592 536.375 294.018 538.266 292.673C539.918 291.515 540.514 289.387 540.855 287.395C541.332 284.535 541.485 281.572 540.668 278.797C539.475 274.813 536.154 271.528 532.151 270.37C528.148 269.229 523.515 269.604 520.381 272.345Z" fill="white"/>
</g>
<path d="M500.179 228.642C500.162 228.642 500.145 228.642 500.128 228.642C500.043 228.625 499.958 228.574 499.907 228.488C498.255 225.628 495.751 221.287 495.546 221.014C495.444 220.878 495.461 220.674 495.597 220.572C495.734 220.47 495.921 220.487 496.04 220.623C496.296 220.946 499.362 226.275 500.247 227.824C501.763 226.36 508.798 219.005 508.917 209.642C508.917 209.472 509.071 209.352 509.241 209.335C509.411 209.335 509.548 209.472 509.548 209.659C509.411 220.367 500.486 228.471 500.384 228.557C500.333 228.625 500.264 228.642 500.179 228.642Z" fill="#0072FF"/>
<path d="M488.818 228.744C488.733 228.744 488.648 228.71 488.597 228.642C488.529 228.557 481.034 220.538 481.034 210.748C481.034 210.578 481.17 210.442 481.34 210.442C481.511 210.442 481.647 210.578 481.647 210.748C481.63 219.091 487.251 226.156 488.699 227.824L491.39 220.793C491.458 220.64 491.629 220.555 491.799 220.606C491.952 220.674 492.037 220.844 491.986 221.014L489.125 228.522C489.091 228.625 489.005 228.693 488.886 228.71C488.869 228.744 488.852 228.744 488.818 228.744Z" fill="#0072FF"/>
<path d="M520.824 273.775C520.654 273.775 520.517 273.639 520.517 273.468C520.517 273.298 520.654 273.162 520.824 273.162C536.409 273.077 552.012 271.204 567.172 267.578C567.342 267.544 567.512 267.646 567.546 267.816C567.58 267.986 567.478 268.157 567.308 268.191C552.097 271.8 536.461 273.69 520.824 273.775Z" fill="#0072FF"/>
<path d="M558.808 296.469C558.791 296.469 558.774 296.469 558.74 296.469C545.079 293.694 535.2 291.702 522.919 289.574C522.748 289.54 522.629 289.387 522.663 289.217C522.697 289.046 522.851 288.927 523.021 288.961C535.302 291.106 545.181 293.081 558.859 295.856C559.029 295.89 559.131 296.061 559.097 296.231C559.08 296.367 558.961 296.469 558.808 296.469Z" fill="#0072FF"/>
<path d="M534.195 288.689H534.178C534.008 288.672 533.871 288.519 533.888 288.348C534.246 283.615 533.769 278.917 532.492 274.354C532.44 274.184 532.543 274.013 532.713 273.962C532.883 273.911 533.054 274.013 533.105 274.184C534.399 278.814 534.876 283.598 534.519 288.4C534.502 288.57 534.365 288.689 534.195 288.689Z" fill="#0072FF"/>
<path d="M547.515 270.302C547.413 270.302 547.294 270.251 547.243 270.149L533.803 245.803C533.718 245.65 533.769 245.462 533.922 245.377C534.076 245.292 534.263 245.343 534.348 245.496L547.788 269.842C547.873 269.995 547.822 270.183 547.668 270.268C547.617 270.285 547.566 270.302 547.515 270.302Z" fill="#0072FF"/>
<path d="M494.388 350.949C494.218 350.949 494.081 350.813 494.081 350.643L494.133 341.739C494.133 341.568 494.269 341.432 494.439 341.432C494.609 341.432 494.745 341.568 494.745 341.739L494.694 350.643C494.694 350.813 494.558 350.949 494.388 350.949Z" fill="white"/>
<path d="M435.572 351.732C435.555 351.732 435.555 351.732 435.538 351.732C435.368 351.715 435.248 351.562 435.265 351.392L436.151 343.271C436.168 343.101 436.322 342.982 436.492 342.999C436.662 343.016 436.781 343.169 436.764 343.339L435.879 351.46C435.862 351.613 435.725 351.732 435.572 351.732Z" fill="white"/>
<path d="M553.766 312.728C550.871 312.728 547.975 311.213 546.357 308.812C546.254 308.676 546.306 308.472 546.442 308.387C546.578 308.285 546.783 308.336 546.868 308.472C548.486 310.889 551.535 312.336 554.43 312.081C554.601 312.064 554.754 312.2 554.771 312.37C554.788 312.541 554.652 312.694 554.482 312.711C554.26 312.711 554.005 312.728 553.766 312.728Z" fill="white"/>
<path d="M498.493 334.316C498.34 334.316 498.203 334.197 498.186 334.043C498.169 333.873 498.289 333.72 498.459 333.703C515.986 331.745 532.985 326.944 548.945 319.47C549.099 319.402 549.286 319.47 549.354 319.623C549.422 319.776 549.354 319.964 549.201 320.032C533.173 327.557 516.122 332.358 498.51 334.333C498.51 334.316 498.493 334.316 498.493 334.316Z" fill="white"/>
<path d="M486.553 426.71H486.536C486.365 426.693 486.229 426.557 486.246 426.387C487.83 398.704 487.643 370.664 485.701 342.999C485.684 342.828 485.82 342.675 485.991 342.658C486.178 342.641 486.314 342.777 486.331 342.947C488.273 370.63 488.46 398.704 486.876 426.404C486.859 426.591 486.706 426.71 486.553 426.71Z" fill="white"/>
<path d="M478.854 431.001C476.367 431.001 473.863 430.677 471.444 429.996C471.274 429.945 471.172 429.775 471.223 429.605C471.274 429.434 471.444 429.332 471.614 429.383C477.542 431.018 483.93 430.592 489.585 428.175C489.738 428.107 489.925 428.175 489.993 428.345C490.062 428.498 489.993 428.685 489.823 428.753C486.348 430.252 482.601 431.001 478.854 431.001Z" fill="white"/>
<path d="M412.1 431.392C408.847 431.392 405.61 430.643 402.715 429.179C402.561 429.094 402.493 428.907 402.578 428.754C402.664 428.6 402.851 428.532 403.004 428.617C407.961 431.137 414.008 431.46 419.203 429.469C419.356 429.4 419.544 429.486 419.612 429.656C419.68 429.809 419.595 429.996 419.424 430.064C417.091 430.95 414.604 431.392 412.1 431.392Z" fill="white"/>
<path d="M476.315 478.807C476.247 478.807 476.196 478.79 476.145 478.756C473.284 476.747 469.656 475.964 466.215 476.577C466.045 476.611 465.874 476.492 465.857 476.321C465.84 476.151 465.942 475.981 466.113 475.964C469.724 475.317 473.505 476.151 476.503 478.245C476.639 478.347 476.673 478.535 476.588 478.688C476.52 478.756 476.418 478.807 476.315 478.807Z" fill="white"/>
<path d="M474.902 482.671C474.834 482.671 474.749 482.637 474.681 482.586C471.955 480.033 467.833 478.96 464.205 479.845C464.035 479.88 463.864 479.777 463.83 479.624C463.796 479.454 463.898 479.284 464.052 479.25C467.884 478.313 472.228 479.454 475.106 482.144C475.226 482.263 475.243 482.467 475.123 482.586C475.055 482.637 474.987 482.671 474.902 482.671Z" fill="white"/>
<path d="M471.495 486.86C471.41 486.86 471.342 486.826 471.274 486.775C468.872 484.442 465.431 483.217 462.093 483.455C461.922 483.472 461.769 483.336 461.752 483.165C461.735 482.995 461.871 482.842 462.042 482.825C465.551 482.57 469.162 483.863 471.7 486.315C471.819 486.434 471.819 486.639 471.7 486.758C471.648 486.826 471.563 486.86 471.495 486.86Z" fill="white"/>
<path d="M404.06 468.32C403.992 468.32 403.907 468.285 403.856 468.234C401.318 466.004 397.792 464.846 394.436 465.119C394.266 465.136 394.113 465 394.096 464.829C394.079 464.659 394.215 464.506 394.385 464.489C397.911 464.199 401.607 465.408 404.282 467.758C404.418 467.877 404.418 468.064 404.316 468.2C404.247 468.285 404.162 468.32 404.06 468.32Z" fill="white"/>
<path d="M402.715 471.861C402.647 471.861 402.561 471.827 402.51 471.776C399.955 469.409 396.361 468.217 392.903 468.609C392.733 468.626 392.58 468.507 392.563 468.337C392.545 468.166 392.665 468.013 392.835 467.996C396.48 467.588 400.245 468.83 402.936 471.333C403.055 471.452 403.072 471.656 402.953 471.776C402.868 471.827 402.8 471.861 402.715 471.861Z" fill="white"/>
<path d="M401.131 475.47C401.063 475.47 400.995 475.453 400.926 475.402C398.116 473.001 394.385 471.793 390.689 472.082C390.519 472.099 390.365 471.963 390.348 471.793C390.331 471.622 390.467 471.469 390.638 471.452C394.487 471.146 398.388 472.406 401.335 474.908C401.471 475.028 401.488 475.215 401.369 475.351C401.301 475.436 401.216 475.47 401.131 475.47Z" fill="white"/>
<path d="M105.551 494.93C100.935 494.93 96.3531 493.738 92.3162 491.508L69.3041 478.739C49.9543 468.013 36.549 448.52 33.4319 426.625L22.3603 348.736C20.7421 337.363 28.3219 326.74 39.615 324.56L98.0564 313.256C102.979 312.303 108.106 312.303 113.046 313.256L171.487 324.56C182.78 326.74 190.36 337.363 188.742 348.736L177.67 426.608C174.553 448.502 161.148 467.996 141.798 478.722L118.786 491.491C114.749 493.738 110.167 494.93 105.551 494.93ZM105.551 313.426C103.098 313.426 100.628 313.664 98.2267 314.124L39.7854 325.429C28.9522 327.523 21.696 337.704 23.246 348.617L34.3177 426.506C37.3837 448.128 50.6356 467.366 69.747 477.973L92.759 490.742C96.6597 492.904 101.088 494.061 105.568 494.061C110.048 494.061 114.46 492.921 118.377 490.742L141.389 477.973C160.501 467.383 173.736 448.145 176.819 426.506L187.89 348.634C189.44 337.721 182.184 327.54 171.351 325.446L112.909 314.141C110.457 313.665 108.004 313.426 105.551 313.426Z" fill="#0072FF"/>
<path d="M105.551 489.09C101.923 489.09 98.3289 488.154 95.1436 486.4L72.1316 473.631C54.3659 463.774 42.0678 445.898 39.2062 425.791L28.1345 347.902C26.9592 339.611 32.478 331.864 40.7222 330.264L99.1635 318.959C101.259 318.551 103.405 318.346 105.551 318.346C107.697 318.346 109.843 318.551 111.938 318.959L170.38 330.264C178.607 331.847 184.143 339.611 182.967 347.902L171.896 425.791C169.034 445.898 156.736 463.774 138.97 473.631L115.958 486.4C112.773 488.171 109.179 489.09 105.551 489.09Z" fill="#397EF6"/>
<path d="M100.186 324.203L41.7442 335.508C36.3446 336.546 32.6995 341.654 33.483 347.102L44.5547 425.025C47.1949 443.582 58.3687 459.824 74.7548 468.915L97.7668 481.684C100.032 482.944 102.672 483.659 105.176 483.744V323.709C103.558 323.743 101.77 323.897 100.186 324.203Z" fill="#9ECAFF"/>
<path d="M168.608 335.508L110.167 324.203C108.566 323.897 106.794 323.726 105.176 323.709V483.744C107.68 483.659 110.354 482.944 112.62 481.684L135.632 468.915C152.018 459.824 163.209 443.565 165.832 425.025L176.904 347.102C177.653 341.654 174.025 336.563 168.608 335.508Z" fill="#54A0FF"/>
<path d="M101.276 430.388L69.0827 398.211C67.8222 396.951 67.8222 394.891 69.0827 393.631C70.3431 392.371 72.4042 392.371 73.6646 393.631L101.276 421.228L148.816 373.712C150.076 372.452 152.137 372.452 153.398 373.712C154.658 374.971 154.658 377.032 153.398 378.291L101.276 430.388Z" fill="white"/>
<defs>
<linearGradient id="paint0_linear_0_1" x1="565.187" y1="347.97" x2="565.187" y2="493.959" gradientUnits="userSpaceOnUse">
<stop stop-color="white"/>
<stop offset="0.401042" stop-color="#D8EAFF"/>
<stop offset="1" stop-color="#9ECAFF"/>
</linearGradient>
<linearGradient id="paint1_linear_0_1" x1="458.345" y1="346.131" x2="458.345" y2="493.142" gradientUnits="userSpaceOnUse">
<stop stop-color="white"/>
<stop offset="0.401042" stop-color="#D8EAFF"/>
<stop offset="1" stop-color="#9ECAFF"/>
</linearGradient>
<linearGradient id="paint2_linear_0_1" x1="507.904" y1="346.863" x2="507.904" y2="493.874" gradientUnits="userSpaceOnUse">
<stop stop-color="white"/>
<stop offset="0.401042" stop-color="#D8EAFF"/>
<stop offset="1" stop-color="#9ECAFF"/>
</linearGradient>
<linearGradient id="paint3_linear_0_1" x1="436" y1="307" x2="667" y2="310" gradientUnits="userSpaceOnUse">
<stop stop-color="#0072FF"/>
<stop offset="1" stop-color="#BFCCFF"/>
</linearGradient>
<linearGradient id="paint4_linear_0_1" x1="282.868" y1="134.732" x2="282.868" y2="196.635" gradientUnits="userSpaceOnUse">
<stop stop-color="#54A0FF"/>
<stop offset="1" stop-color="#80B9FF"/>
</linearGradient>
<linearGradient id="paint5_linear_0_1" x1="532" y1="315.5" x2="490" y2="316" gradientUnits="userSpaceOnUse">
<stop stop-color="#328EFF"/>
<stop offset="1" stop-color="#0072FF"/>
</linearGradient>
<linearGradient id="paint6_linear_0_1" x1="388" y1="294" x2="498.5" y2="294" gradientUnits="userSpaceOnUse">
<stop stop-color="#0072FF"/>
<stop offset="1" stop-color="#54A0FF"/>
</linearGradient>
</defs>
</svg>