<?xml version="1.0" encoding="utf-8"?>
<!-- Generator: Adobe Illustrator 17.0.0, SVG Export Plug-In . SVG Version: 6.00 Build 0)  -->
<!DOCTYPE svg PUBLIC "-//W3C//DTD SVG 1.1//EN" "http://www.w3.org/Graphics/SVG/1.1/DTD/svg11.dtd">
<svg version="1.1" xmlns="http://www.w3.org/2000/svg" xmlns:xlink="http://www.w3.org/1999/xlink" x="0px" y="0px"
	 width="280.906px" height="81.61px" viewBox="859.774 211.255 280.906 81.61"
	 enable-background="new 859.774 211.255 280.906 81.61" xml:space="preserve">
<g id="OnBlueLogo">
</g>
<g id="OnWhiteLogo">
	<g>
		<path fill="#4D4D4D" d="M1060.145,249.773l-5.273,12.464l-5.832-13.183c-1.278-3.915-5.593-6.152-9.667-6.152h-3.276l0.639,0.799
			c0.799,1.198,1.758,2.317,2.317,3.755l10.866,24.688c0.08,0.08,0.16,0.24,0.16,0.399c0.479,1.278,1.438,2.237,2.717,2.637
			c1.358,0.399,2.636,0.24,3.755-0.559c1.758-1.119,3.036-2.956,4.394-5.832c0,0,0-0.08,0.08-0.16l9.747-22.85
			c0.32-0.639,0.719-1.198,1.039-1.598l0.559-0.799h-3.356C1064.938,243.382,1061.423,245.859,1060.145,249.773z"/>
		<path fill="#4D4D4D" d="M1095.539,244.66c-1.918-0.799-3.995-1.198-6.072-1.198c-2.317,0-4.714,0-7.111,0
			c-4.394,0-7.91,3.436-8.07,7.83c0,0.959-0.08,1.838-0.08,2.796c0,1.039,0,2.157,0,3.196c0,5.353,0,10.626,0,15.979v18.536h0.559
			c2.077,0,3.835-0.719,5.273-2.237c1.438-1.518,2.237-3.276,2.237-5.433v-7.99h7.271c2.077,0,4.075-0.479,5.992-1.278
			c1.997-0.799,3.755-1.917,5.273-3.436c3.116-3.276,4.794-7.111,4.794-11.585c0-4.554-1.678-8.469-4.794-11.665
			C1099.294,246.657,1097.536,245.459,1095.539,244.66z M1097.456,259.84c0,2.237-0.799,4.075-2.317,5.673
			c-1.598,1.598-3.436,2.397-5.673,2.397c-2.557,0-4.874,0.24-7.191,0.08v-4.075v-9.827c0-0.799,0-1.598,0-2.397
			c2.397,0,4.794,0,7.191,0c2.237,0,4.075,0.799,5.673,2.397c1.518,1.518,2.317,3.436,2.317,5.673V259.84z"/>
		<path fill="#4D4D4D" d="M1135.886,248.176c-1.518-1.518-3.276-2.717-5.273-3.515c-1.917-0.799-3.995-1.198-6.072-1.198
			c-1.997,0-4.234,0.08-6.392,0.08c-4.394,0-7.99,3.595-7.99,7.99c0,0.639,0,1.358,0,1.997v16.778c0,3.196,2.637,5.832,5.833,5.832
			h2.237v-9.747v-5.353v-9.348h6.312c2.237,0,4.075,0.799,5.673,2.397c1.518,1.518,2.317,3.436,2.317,5.673v10.546
			c0,3.196,2.637,5.832,5.832,5.832h2.317V259.84C1140.68,255.286,1139.002,251.371,1135.886,248.176z"/>
	</g>
	<g>
		<path fill="#4D4D4D" d="M996.707,230.598c-2.077,0-3.835,0.799-5.353,2.237c-1.518,1.518-2.237,3.276-2.237,5.433v27.644
			c0,3.196-0.16,8.149-0.559,9.588h2.716c3.276,0,5.912-2.637,5.912-5.912v-31.959c0-2.317-0.08-4.634,0.16-7.031H996.707z"/>
		<path fill="#4D4D4D" d="M1032.58,243.142h-0.879c-2.077,0.16-3.915,0.799-5.353,2.317c-1.518,1.438-2.317,3.276-2.317,5.353v4.634
			v8.07v4.234c-6.631,0.32-13.582-1.598-13.582-9.508c0-5.033-0.32-10.067,0.16-15.1h-0.639c-2.077,0-3.915,0.719-5.353,2.237
			c-1.518,1.518-2.237,3.276-2.237,5.433v8.549c0,12.863,10.706,18.856,21.652,16.139c-0.559,6.392-6.552,7.51-11.984,7.51h-2.077
			c-2.077,0-3.835,0.719-5.353,2.237c-1.518,1.438-2.237,3.276-2.237,5.353v0.559c3.595-0.959,14.781,0.719,19.734-1.278
			c5.992-2.397,10.147-8.309,10.147-14.781v-2.237v-6.711v-7.51v-3.196C1032.261,251.371,1032.021,246.737,1032.58,243.142z"/>
		<path fill="#4D4D4D" d="M955.96,260.16v15.34h2.237c3.276,0,5.912-2.637,5.912-5.912v-5.433c0-4.954,0.719-7.191,5.992-7.191
			c2.157,0,3.915-0.719,5.433-2.237c1.438-1.518,2.237-3.276,2.237-5.433v-0.479C965.947,248.815,955.96,248.495,955.96,260.16z"/>
		<path fill="#4D4D4D" d="M979.369,230.598h-14.781c-4.714,0-8.629,3.915-8.629,8.629v11.425c2.237-4.314,7.99-3.196,7.99-6.312
			c0.479-3.515,1.838-5.593,5.513-5.593h10.147c2.157,0,3.915-0.719,5.433-2.237c1.518-1.518,2.237-3.276,2.237-5.433v-1.518
			C985.841,230.199,982.405,230.678,979.369,230.598z"/>
	</g>
	<g>
		<path fill="#CCCCCC" d="M903.489,287.031c6.707,0,12.216,1.306,12.304,2.917c0.088,1.611-5.279,2.917-11.986,2.917
			c-6.707,0-12.216-1.306-12.304-2.917C891.415,288.337,896.782,287.031,903.489,287.031z"/>
	</g>
	
		<radialGradient id="SVGID_1_" cx="1729.647" cy="705.9514" r="108.3572" gradientTransform="matrix(0.3961 0.113 0.113 -0.3961 134.0758 339.7789)" gradientUnits="userSpaceOnUse">
		<stop  offset="0" style="stop-color:#21A4FC"/>
		<stop  offset="1" style="stop-color:#156CD1"/>
	</radialGradient>
	<path fill="url(#SVGID_1_)" d="M925.696,266.189c0-1.072-0.134-2.278-0.536-3.216c0.134,0.134,0.134,0.268,0.134,0.402
		C925.562,264.313,925.696,265.251,925.696,266.189z M874.111,255.604c3.082,7.101,8.173,10.853,14.069,12.327
		c9.781,2.278,15.944-3.886,24.788-2.144c3.484,0.804,6.297,2.68,8.173,6.431l0.268-0.804c0.938-2.814,1.072-5.225,0.536-7.503
		c-0.402-1.876-1.474-3.618-2.814-5.092c-1.34-1.34-3.216-2.546-5.226-3.216C902.918,251.585,888.313,260.964,874.111,255.604z"/>
	
		<radialGradient id="SVGID_2_" cx="1344.8668" cy="677.8475" r="41.5284" gradientTransform="matrix(0.5488 0.2205 0.2205 -0.5488 17.9811 346.5793)" gradientUnits="userSpaceOnUse">
		<stop  offset="0" style="stop-color:#21A4FC"/>
		<stop  offset="1" style="stop-color:#156CD1"/>
	</radialGradient>
	<path fill="url(#SVGID_2_)" d="M904.928,269.539c-1.742,9.379-7.771,13.667-7.771,13.667c4.823-0.402,20.098-2.546,19.696-9.379
		c-0.134-1.876-1.206-3.618-3.082-4.288c-0.402-0.134-0.938-0.268-1.34-0.402C910.287,268.735,907.608,269.003,904.928,269.539z"/>
	
		<radialGradient id="SVGID_3_" cx="1608.8003" cy="1007.4506" r="143.0384" gradientTransform="matrix(0.396 0.1804 0.1804 -0.396 73.5473 345.0874)" gradientUnits="userSpaceOnUse">
		<stop  offset="0" style="stop-color:#21A4FC"/>
		<stop  offset="1" style="stop-color:#156CD1"/>
	</radialGradient>
	<path fill="url(#SVGID_3_)" d="M859.774,234.702c10.183,20.098,23.314,19.696,41.536,17.016c4.69-0.67,9.245-0.938,13.667,0.67
		c2.546,0.938,4.824,2.412,6.565,4.154c1.876,1.876,3.216,4.154,3.752,6.833c0.134,0.402,0.134,0.67,0.268,1.072
		c0,0.536,0.134,0.938,0.134,1.474c0,0.67,0,1.206,0,1.876c1.34-3.082,2.01-5.895,2.144-8.441c0.268-3.886-0.67-7.369-1.876-10.719
		C917.791,226.261,877.193,241.804,859.774,234.702z"/>
	
		<radialGradient id="SVGID_4_" cx="1438.781" cy="1636.8496" r="74.7262" gradientTransform="matrix(0.2667 0.3981 0.3981 -0.2667 -111.0263 81.8611)" gradientUnits="userSpaceOnUse">
		<stop  offset="0" style="stop-color:#21A4FC"/>
		<stop  offset="1" style="stop-color:#156CD1"/>
	</radialGradient>
	<path fill="url(#SVGID_4_)" d="M934.405,219.696c-2.01-6.029-8.173-8.441-13.801-7.637c-4.556,0.268-12.729-0.134-13.935-0.804
		c-0.268,1.34,1.608,5.225,3.886,6.967c-3.35,5.359-2.278,12.729,5.761,16.48c5.761,2.68,10.719,6.833,12.997,12.863
		c1.206,3.618,1.34,7.771,1.34,11.791c2.948-8.307,3.886-17.686,2.01-24.922l-0.134-0.536c1.608-0.268,12.059-1.608,8.977-2.814
		c-0.804-0.268-2.68-2.01-4.02-3.484C935.879,225.725,935.343,222.241,934.405,219.696z M926.768,219.428
		c1.34-0.268,2.68,0.536,3.082,1.876c0.268,1.34-0.536,2.68-1.742,2.948c-1.34,0.268-2.814-0.536-3.082-1.876
		C924.624,221.036,925.428,219.696,926.768,219.428z"/>
</g>
<g id="OnBlueFly">
</g>
<g id="OnWhiteFly">
</g>
<g id="B_x26_WOnBlackLogo">
</g>
<g id="B_x26_WOnWhite">
</g>
<g id="B_x26_WOnBlackFLY">
</g>
<g id="B_x26_WOnWhiteFLY">
</g>
</svg>
