<svg width="211" height="25" viewBox="0 0 211 25" fill="none" xmlns="http://www.w3.org/2000/svg">
    <path d="M103.647 7.23565C103.88 7.29246 103.939 7.38083 103.909 7.56809L103.734 8.53805C103.704 8.72741 103.677 8.87048 103.355 8.84313C102.86 8.79895 101.87 8.72741 101.098 8.72741C99.6702 8.72741 98.8409 9.46593 98.5067 11.4353L98.1429 13.5646C98.0858 13.9265 98.0561 14.2463 98.0561 14.5198C98.0561 15.8811 98.6527 16.2725 99.7738 16.2725C100.546 16.2725 101.536 16.201 102.061 16.1568C102.367 16.1273 102.367 16.2578 102.323 16.4619L102.147 17.4318C102.103 17.6338 101.972 17.7074 101.769 17.7642C101.536 17.8232 100.561 17.9957 99.4375 17.9957C97.705 17.9957 96 17.1709 96 14.6208C96 14.3031 96.0444 13.9391 96.1015 13.5625L96.4654 11.4332C97.136 7.55125 99.2619 7 101.373 7C102.496 7.00421 103.442 7.17674 103.647 7.23565Z" fill="white"/>
    <path d="M110.245 13.3627L111.789 17.5918C111.861 17.7812 111.732 17.8822 111.586 17.8822H109.91C109.75 17.8822 109.692 17.7665 109.633 17.5918L108.25 13.7246H107.958C107.579 13.7246 107.156 13.6951 106.661 13.6657L105.976 17.5918C105.946 17.7517 105.904 17.8822 105.641 17.8822H104.184C104.008 17.8822 103.922 17.7959 103.951 17.5918L105.713 7.6271C105.771 7.33674 105.946 7.23574 106.253 7.19156C107.025 7.07584 108.074 7.0022 109.136 7.0022C111.321 7.0022 112.821 7.84171 112.821 9.81319C112.821 11.3491 111.933 12.8409 110.245 13.3627ZM108.831 8.72751C108.525 8.72751 107.797 8.75696 107.535 8.78432L106.953 12.0435C107.186 12.0582 108.002 12.0877 108.25 12.0877C109.75 12.0877 110.784 11.5364 110.784 9.90156C110.782 9.01786 110.113 8.72751 108.831 8.72751Z" fill="white"/>
    <path d="M122.288 7.45231L119.186 12.4788C118.793 13.1164 118.459 13.4341 118.11 13.5645L117.397 17.5916C117.367 17.7516 117.221 17.882 117.063 17.882H115.607C115.446 17.882 115.36 17.781 115.389 17.5916L116.102 13.5645C115.81 13.4341 115.563 13.1164 115.404 12.4788L114.093 7.45231C114.035 7.25033 114.122 7.11987 114.355 7.11987H115.884C116.015 7.11987 116.102 7.17668 116.147 7.35132L117.137 11.6688C117.196 11.915 117.238 11.9297 117.327 11.9297C117.473 11.9297 117.503 11.915 117.646 11.6688L120.151 7.35132C120.253 7.17668 120.384 7.11987 120.515 7.11987H122.131C122.262 7.11987 122.334 7.19142 122.334 7.30924C122.332 7.35132 122.317 7.3955 122.288 7.45231Z" fill="white"/>
    <path d="M124.284 7.19156C125.056 7.07584 126.106 7.0022 127.168 7.0022C129.672 7.0022 130.823 8.00162 130.823 9.94364C130.823 12.1739 129.323 13.8698 125.96 13.8698C125.581 13.8698 125.012 13.8256 124.678 13.8109L124.007 17.5918C123.978 17.7517 123.906 17.8822 123.673 17.8822H122.216C121.983 17.8822 121.953 17.737 121.983 17.5918L123.745 7.6271C123.802 7.33674 123.978 7.23574 124.284 7.19156ZM124.953 12.176C125.186 12.1908 126.002 12.2202 126.25 12.2202C128.012 12.2202 128.828 11.265 128.828 9.94575C128.828 8.97579 128.232 8.6707 126.876 8.6707C126.569 8.6707 125.826 8.70016 125.564 8.72962L124.953 12.176Z" fill="white"/>
    <path d="M134.989 17.5917C134.959 17.7516 134.902 17.882 134.64 17.882H133.199C133.024 17.882 132.937 17.7663 132.967 17.5917L134.526 8.79892H131.977C131.816 8.79892 131.699 8.74001 131.729 8.53802L131.932 7.39343C131.977 7.16198 132.108 7.1178 132.266 7.1178H139.387C139.634 7.1178 139.664 7.23352 139.634 7.39343L139.431 8.53802C139.387 8.75474 139.256 8.79892 139.097 8.79892H136.548L134.989 17.5917Z" fill="white"/>
    <path d="M147.848 11.5238L147.513 13.4805C146.932 16.8554 145.11 18 142.561 18C140.478 18 139.109 16.8407 139.109 14.5957C139.109 14.2485 139.139 13.8866 139.211 13.4805L139.545 11.5238C140.126 8.13415 141.948 7.00427 144.497 7.00427C146.58 7.00427 147.949 8.23514 147.949 10.4507C147.949 10.7852 147.907 11.1471 147.848 11.5238ZM144.192 8.75694C142.678 8.75694 141.92 9.55437 141.586 11.5238L141.252 13.4805C141.18 13.9013 141.15 14.2632 141.15 14.5662C141.15 15.8265 141.732 16.2473 142.868 16.2473C144.412 16.2473 145.155 15.3636 145.474 13.4805L145.808 11.5238C145.88 11.1177 145.91 10.7558 145.91 10.4528C145.912 9.2051 145.343 8.75694 144.192 8.75694Z" fill="white"/>
    <path d="M161.216 7.11987C161.407 7.11987 161.464 7.20614 161.42 7.36605L158.376 16.8258C158.084 17.739 157.618 17.9999 156.861 17.9999H156.118C155.463 17.9999 155.173 17.6821 155.114 16.8405L154.807 12.0602C154.792 11.9297 154.807 11.9002 154.75 11.9002C154.691 11.9002 154.678 11.9297 154.619 12.0602L152.624 16.8405C152.275 17.68 151.867 17.9999 151.211 17.9999H150.382C149.755 17.9999 149.246 17.6948 149.275 16.8258L149.582 7.36605C149.582 7.20614 149.728 7.11987 149.874 7.11987H151.359C151.475 7.11987 151.577 7.17669 151.562 7.38078L151.082 16.0284C151.082 16.1588 151.082 16.2451 151.154 16.2451C151.211 16.2451 151.24 16.1588 151.3 16.0284L153.44 10.945C153.586 10.5979 153.849 10.2928 154.475 10.2928H155.48C156.106 10.2928 156.252 10.5979 156.281 10.945L156.645 16.0284C156.66 16.1588 156.66 16.2451 156.702 16.2451C156.747 16.2451 156.761 16.1588 156.804 16.0284L159.382 7.38078C159.427 7.22087 159.484 7.11987 159.674 7.11987H161.216V7.11987Z" fill="white"/>
    <path d="M168.413 17.8822H166.928C166.725 17.8822 166.71 17.7665 166.696 17.636L166.52 14.8839H163.169L162.006 17.636C161.949 17.7665 161.875 17.8822 161.686 17.8822H160.085C159.954 17.8822 159.867 17.8106 159.867 17.6928C159.867 17.6486 159.882 17.6065 159.897 17.5624L163.886 8.47924C164.483 7.13265 165.371 7.0022 166.173 7.0022C166.916 7.0022 167.834 7.2631 167.935 8.47924L168.722 17.5624C168.722 17.5771 168.722 17.5771 168.722 17.5918C168.718 17.7517 168.661 17.8822 168.413 17.8822ZM166.127 8.9295C166.112 8.75486 166.082 8.69805 165.938 8.69805C165.795 8.69805 165.735 8.75486 165.661 8.9295L163.855 13.2323H166.419L166.127 8.9295Z" fill="white"/>
    <path d="M178.272 7.45231L175.171 12.4788C174.778 13.1164 174.444 13.4341 174.095 13.5645L173.382 17.5916C173.352 17.7516 173.206 17.882 173.047 17.882H171.592C171.431 17.882 171.345 17.781 171.374 17.5916L172.087 13.5645C171.795 13.4341 171.548 13.1164 171.389 12.4788L170.077 7.45231C170.02 7.25033 170.107 7.11987 170.34 7.11987H171.869C172 7.11987 172.087 7.17668 172.131 7.35132L173.121 11.6688C173.181 11.915 173.223 11.9297 173.312 11.9297C173.458 11.9297 173.487 11.915 173.631 11.6688L176.136 7.35132C176.237 7.17668 176.369 7.11987 176.5 7.11987H178.116C178.247 7.11987 178.319 7.19142 178.319 7.30924C178.315 7.35132 178.302 7.3955 178.272 7.45231Z" fill="white"/>
    <path d="M187.724 7.11987C187.885 7.11987 188.001 7.17668 187.957 7.3955L186.195 17.3034C186.138 17.6211 185.831 17.882 185.509 17.882H184.141C183.792 17.882 183.485 17.882 183.339 17.3602L181.255 10.3054C181.226 10.2191 181.198 10.1897 181.154 10.1897C181.109 10.1897 181.067 10.2191 181.052 10.3054L179.77 17.5916C179.741 17.7516 179.698 17.882 179.436 17.882H178.199C178.053 17.882 177.922 17.8105 177.966 17.5916L179.713 7.69848C179.773 7.38077 180.077 7.11987 180.399 7.11987H181.869C182.176 7.11987 182.307 7.20614 182.423 7.58276L184.608 15.0289C184.623 15.1005 184.653 15.1447 184.695 15.1447C184.725 15.1447 184.782 15.1005 184.796 15.0142L186.15 7.3955C186.18 7.23559 186.267 7.11987 186.47 7.11987H187.724Z" fill="white"/>
    <path d="M197.41 11.5238L197.076 13.4805C196.494 16.8554 194.673 18 192.124 18C190.04 18 188.672 16.8407 188.672 14.5957C188.672 14.2485 188.701 13.8866 188.773 13.4805L189.108 11.5238C189.689 8.13415 191.511 7.00427 194.06 7.00427C196.143 7.00427 197.512 8.23514 197.512 10.4507C197.512 10.7852 197.467 11.1471 197.41 11.5238ZM193.755 8.75694C192.24 8.75694 191.483 9.55437 191.149 11.5238L190.815 13.4805C190.743 13.9013 190.713 14.2632 190.713 14.5662C190.713 15.8265 191.295 16.2473 192.431 16.2473C193.975 16.2473 194.718 15.3636 195.037 13.4805L195.371 11.5238C195.443 11.1177 195.473 10.7558 195.473 10.4528C195.473 9.2051 194.904 8.75694 193.755 8.75694Z" fill="white"/>
    <path d="M210.78 7.11987C210.97 7.11987 211.027 7.20614 210.983 7.36605L207.939 16.8258C207.647 17.739 207.181 17.9999 206.424 17.9999H205.682C205.026 17.9999 204.736 17.6821 204.677 16.8405L204.37 12.0602C204.355 11.9297 204.37 11.9002 204.313 11.9002C204.254 11.9002 204.241 11.9297 204.182 12.0602L202.187 16.8405C201.838 17.68 201.43 17.9999 200.774 17.9999H199.945C199.319 17.9999 198.809 17.6948 198.838 16.8258L199.145 7.36605C199.145 7.20614 199.291 7.11987 199.437 7.11987H200.922C201.038 7.11987 201.14 7.17669 201.125 7.38078L200.645 16.0284C200.645 16.1588 200.645 16.2451 200.717 16.2451C200.774 16.2451 200.804 16.1588 200.863 16.0284L203.004 10.945C203.15 10.5979 203.412 10.2928 204.038 10.2928H205.043C205.669 10.2928 205.815 10.5979 205.845 10.945L206.208 16.0284C206.223 16.1588 206.223 16.2451 206.266 16.2451C206.31 16.2451 206.325 16.1588 206.367 16.0284L208.946 7.38078C208.99 7.22087 209.047 7.11987 209.238 7.11987H210.78V7.11987Z" fill="white"/>
    <path d="M91 3.52018C63.9571 2.32703 66.0019 -4.30932 59.9592 4.49367C58.2612 7.24879 56.9633 10.0698 54.8489 12.6677C54.2133 13.2978 53.2147 15.1812 52.0873 13.803C52.0873 13.8019 52.0873 13.8019 52.0873 13.8019C46.4343 7.61876 46.3333 3.07622 44.263 6.44179C42.9988 8.07891 38.9231 15.4309 37.5928 14.1464C35.5538 12.3937 34.0576 9.72759 32.7249 7.4014C31.296 5.12377 29.3521 0.417056 25.9143 0.00662059C22.6471 0.0366807 14.4853 2.97216 0 3.52018C3.85299 13.588 18.6804 8.63618 24.4228 6.61522C24.3996 6.6684 22.7793 10.1461 8.40885 12.6099C13.3649 19.3572 21.6914 16.7651 26.5059 13.3441C26.5059 13.3441 26.0674 15.7211 21.718 18.1167C23.0669 20.7273 28.8731 20.836 31.3807 17.9005C33.023 19 34.3464 20.9377 35.4274 22.717C36.39 24.2582 37.5209 26.4711 39.5378 23.5263C41.0398 21.2915 44.1737 16.4321 45.5238 15.9847C47.3784 16.9015 50.2698 22.1574 52.2184 24.4177C54.7967 26.8908 55.3279 20.8695 59.617 17.9005C62.5259 21.1261 68.1465 20.4486 69.2796 18.1167C64.9349 15.7234 64.493 13.3487 64.4918 13.3452C69.892 17.1547 77.9205 19.0162 82.5888 12.611C68.2184 10.1473 66.5981 6.66956 66.5749 6.61637C72.9587 8.8836 87.2421 13.366 91 3.52018Z" fill="url(#paint0_radial_91_131)"/>
    <defs>
        <radialGradient id="paint0_radial_91_131" cx="0" cy="0" r="1" gradientUnits="userSpaceOnUse" gradientTransform="translate(54.3651 12.5412) scale(23.0011 22.9889)">
            <stop offset="1.70489e-07" stop-color="#21A4FC"/>
            <stop offset="1" stop-color="#156CD1"/>
        </radialGradient>
    </defs>
</svg>
