<svg width="91" height="25" viewBox="0 0 91 25" fill="none" xmlns="http://www.w3.org/2000/svg">
    <path d="M91 3.52018C63.9571 2.32703 66.0019 -4.30932 59.9592 4.49367C58.2612 7.24879 56.9633 10.0698 54.8489 12.6677C54.2133 13.2978 53.2147 15.1812 52.0873 13.803C52.0873 13.8019 52.0873 13.8019 52.0873 13.8019C46.4343 7.61876 46.3333 3.07622 44.263 6.44179C42.9988 8.07891 38.9231 15.4309 37.5928 14.1464C35.5538 12.3937 34.0576 9.72759 32.7249 7.4014C31.296 5.12377 29.3521 0.417056 25.9143 0.00662059C22.6471 0.0366807 14.4853 2.97216 0 3.52018C3.85299 13.588 18.6804 8.63618 24.4228 6.61522C24.3996 6.6684 22.7793 10.1461 8.40885 12.6099C13.3649 19.3572 21.6914 16.7651 26.5059 13.3441C26.5059 13.3441 26.0674 15.7211 21.718 18.1167C23.0669 20.7273 28.8731 20.836 31.3807 17.9005C33.023 19 34.3464 20.9377 35.4274 22.717C36.39 24.2582 37.5209 26.4711 39.5378 23.5263C41.0398 21.2915 44.1737 16.4321 45.5238 15.9847C47.3784 16.9015 50.2698 22.1574 52.2184 24.4177C54.7967 26.8908 55.3279 20.8695 59.617 17.9005C62.5259 21.1261 68.1465 20.4486 69.2796 18.1167C64.9349 15.7234 64.493 13.3487 64.4918 13.3452C69.892 17.1547 77.9205 19.0162 82.5888 12.611C68.2184 10.1473 66.5981 6.66956 66.5749 6.61637C72.9587 8.8836 87.2421 13.366 91 3.52018Z" fill="url(#paint0_radial_50_113)"/>
    <defs>
        <radialGradient id="paint0_radial_50_113" cx="0" cy="0" r="1" gradientUnits="userSpaceOnUse" gradientTransform="translate(54.3651 12.5412) scale(23.0011 22.9889)">
            <stop offset="1.70489e-07" stop-color="#21A4FC"/>
            <stop offset="1" stop-color="#156CD1"/>
        </radialGradient>
    </defs>
</svg>
