<svg width="115" height="45" viewBox="0 0 115 45" fill="none" xmlns="http://www.w3.org/2000/svg">
    <g clip-path="url(#clip0_150_5)">
        <path d="M103 3.52018C75.9571 2.32703 78.0019 -4.30932 71.9592 4.49367C70.2612 7.24879 68.9633 10.0698 66.8489 12.6677C66.2133 13.2978 65.2147 15.1812 64.0873 13.803C64.0873 13.8019 64.0873 13.8019 64.0873 13.8019C58.4343 7.61876 58.3333 3.07622 56.263 6.44179C54.9988 8.07891 50.9231 15.4309 49.5928 14.1464C47.5538 12.3937 46.0576 9.72759 44.7249 7.4014C43.296 5.12377 41.3521 0.417057 37.9143 0.00662178C34.6471 0.0366819 26.4853 2.97216 12 3.52018C15.853 13.588 30.6804 8.63618 36.4228 6.61522C36.3996 6.6684 34.7793 10.1461 20.4089 12.6099C25.3649 19.3572 33.6914 16.7651 38.5059 13.3441C38.5059 13.3441 38.0674 15.7211 33.718 18.1167C35.0669 20.7273 40.8731 20.836 43.3807 17.9005C45.023 19 46.3464 20.9377 47.4274 22.717C48.39 24.2582 49.5209 26.4711 51.5378 23.5263C53.0398 21.2915 56.1737 16.4321 57.5238 15.9847C59.3784 16.9015 62.2698 22.1574 64.2184 24.4177C66.7967 26.8908 67.3279 20.8695 71.617 17.9005C74.5259 21.1261 80.1465 20.4486 81.2796 18.1167C76.9349 15.7234 76.493 13.3487 76.4918 13.3452C81.892 17.1547 89.9205 19.0162 94.5888 12.611C80.2184 10.1473 78.5981 6.66956 78.5749 6.61637C84.9587 8.8836 99.2421 13.366 103 3.52018Z" fill="url(#paint0_radial_150_5)"/>
        <path d="M7.64705 34.2357C7.87974 34.2925 7.93897 34.3808 7.90935 34.5681L7.73378 35.5381C7.70416 35.7274 7.67666 35.8705 7.35513 35.8431C6.86013 35.7989 5.87014 35.7274 5.09803 35.7274C3.67016 35.7274 2.84094 36.4659 2.50671 38.4353L2.14287 40.5646C2.08575 40.9265 2.05614 41.2463 2.05614 41.5198C2.05614 42.8811 2.65267 43.2725 3.77381 43.2725C4.54592 43.2725 5.53591 43.201 6.06052 43.1568C6.36725 43.1273 6.36725 43.2578 6.32283 43.4619L6.14725 44.4318C6.10283 44.6338 5.97168 44.7074 5.7686 44.7642C5.53591 44.8232 4.56073 44.9957 3.43747 44.9957C1.70499 44.9957 0 44.1709 0 41.6208C0 41.3031 0.0444218 40.9391 0.101537 40.5625L0.46538 38.4332C1.13595 34.5513 3.26189 34 5.37303 34C6.49629 34.0042 7.44186 34.1767 7.64705 34.2357Z" fill="white"/>
        <path d="M14.2445 40.3627L15.7887 44.5918C15.8606 44.7812 15.7316 44.8822 15.5856 44.8822H13.9103C13.7495 44.8822 13.6924 44.7665 13.6332 44.5918L12.2497 40.7246H11.9578C11.5791 40.7246 11.1561 40.6951 10.6611 40.6657L9.9757 44.5918C9.94609 44.7517 9.90378 44.8822 9.64147 44.8822H8.18399C8.00842 44.8822 7.92168 44.7959 7.9513 44.5918L9.7134 34.6271C9.77052 34.3367 9.94609 34.2357 10.2528 34.1916C11.0249 34.0758 12.0741 34.0022 13.1361 34.0022C15.3212 34.0022 16.821 34.8417 16.821 36.8132C16.821 38.3491 15.9326 39.8409 14.2445 40.3627ZM12.8314 35.7275C12.5247 35.7275 11.797 35.757 11.5347 35.7843L10.953 39.0435C11.1857 39.0582 12.0022 39.0877 12.2497 39.0877C13.7495 39.0877 14.7839 38.5364 14.7839 36.9016C14.7818 36.0179 14.1134 35.7275 12.8314 35.7275Z" fill="white"/>
        <path d="M26.2875 34.4523L23.1864 39.4788C22.793 40.1164 22.4587 40.4341 22.1097 40.5645L21.3968 44.5916C21.3672 44.7516 21.2212 44.882 21.0626 44.882H19.6072C19.4464 44.882 19.3597 44.781 19.3893 44.5916L20.1022 40.5645C19.8103 40.4341 19.5628 40.1164 19.4041 39.4788L18.0926 34.4523C18.0355 34.2503 18.1222 34.1199 18.3549 34.1199H19.8843C20.0155 34.1199 20.1022 34.1767 20.1466 34.3513L21.1366 38.6688C21.1959 38.915 21.2382 38.9297 21.327 38.9297C21.473 38.9297 21.5026 38.915 21.6464 38.6688L24.151 34.3513C24.2526 34.1767 24.3837 34.1199 24.5149 34.1199H26.131C26.2622 34.1199 26.3341 34.1914 26.3341 34.3092C26.332 34.3513 26.3171 34.3955 26.2875 34.4523Z" fill="white"/>
        <path d="M28.2844 34.1916C29.0565 34.0758 30.1057 34.0022 31.1676 34.0022C33.6722 34.0022 34.823 35.0016 34.823 36.9436C34.823 39.1739 33.3232 40.8698 29.9597 40.8698C29.5811 40.8698 29.012 40.8256 28.6778 40.8109L28.0072 44.5918C27.9776 44.7517 27.9057 44.8822 27.673 44.8822H26.2155C25.9828 44.8822 25.9532 44.737 25.9828 44.5918L27.7449 34.6271C27.8021 34.3367 27.9776 34.2357 28.2844 34.1916ZM28.9528 39.176C29.1855 39.1908 30.002 39.2202 30.2495 39.2202C32.0116 39.2202 32.8282 38.265 32.8282 36.9457C32.8282 35.9758 32.2316 35.6707 30.8757 35.6707C30.569 35.6707 29.8265 35.7002 29.5642 35.7296L28.9528 39.176Z" fill="white"/>
        <path d="M38.9889 44.5917C38.9593 44.7516 38.9022 44.882 38.6398 44.882H37.1993C37.0237 44.882 36.937 44.7663 36.9666 44.5917L38.5256 35.7989H35.9766C35.8158 35.7989 35.6995 35.74 35.7291 35.538L35.9322 34.3934C35.9766 34.162 36.1078 34.1178 36.2664 34.1178H43.3867C43.6342 34.1178 43.6638 34.2335 43.6342 34.3934L43.4311 35.538C43.3867 35.7547 43.2556 35.7989 43.0969 35.7989H40.5479L38.9889 44.5917Z" fill="white"/>
        <path d="M51.8476 38.5238L51.5134 40.4805C50.9316 43.8554 49.1103 45 46.5613 45C44.4776 45 43.109 43.8407 43.109 41.5957C43.109 41.2485 43.1386 40.8866 43.2105 40.4805L43.5448 38.5238C44.1265 35.1341 45.9478 34.0043 48.4968 34.0043C50.5805 34.0043 51.9491 35.2351 51.9491 37.4507C51.9491 37.7852 51.9068 38.1471 51.8476 38.5238ZM48.1922 35.7569C46.6776 35.7569 45.9203 36.5544 45.5861 38.5238L45.2519 40.4805C45.18 40.9013 45.1503 41.2632 45.1503 41.5662C45.1503 42.8265 45.7321 43.2473 46.868 43.2473C48.4122 43.2473 49.1547 42.3636 49.4741 40.4805L49.8084 38.5238C49.8803 38.1177 49.9099 37.7558 49.9099 37.4528C49.912 36.2051 49.343 35.7569 48.1922 35.7569Z" fill="white"/>
        <path d="M65.2164 34.1199C65.4068 34.1199 65.4639 34.2061 65.4195 34.366L62.3755 43.8258C62.0836 44.739 61.6182 44.9999 60.8609 44.9999H60.1184C59.4626 44.9999 59.1728 44.6821 59.1136 43.8405L58.8069 39.0602C58.7921 38.9297 58.8069 38.9002 58.7498 38.9002C58.6905 38.9002 58.6778 38.9297 58.6186 39.0602L56.6238 43.8405C56.2748 44.68 55.8665 44.9999 55.2108 44.9999H54.3815C53.7554 44.9999 53.2456 44.6948 53.2752 43.8258L53.5819 34.366C53.5819 34.2061 53.7279 34.1199 53.8739 34.1199H55.3588C55.4752 34.1199 55.5767 34.1767 55.5619 34.3808L55.0817 43.0284C55.0817 43.1588 55.0817 43.2451 55.1537 43.2451C55.2108 43.2451 55.2404 43.1588 55.2996 43.0284L57.4404 37.945C57.5863 37.5979 57.8486 37.2928 58.4748 37.2928H59.4796C60.1057 37.2928 60.2517 37.5979 60.2813 37.945L60.6451 43.0284C60.6599 43.1588 60.6599 43.2451 60.7023 43.2451C60.7467 43.2451 60.7615 43.1588 60.8038 43.0284L63.3824 34.3808C63.4268 34.2209 63.484 34.1199 63.6743 34.1199H65.2164Z" fill="white"/>
        <path d="M72.4133 44.8822H70.9284C70.7253 44.8822 70.7105 44.7665 70.6957 44.636L70.5201 41.8839H67.1694L66.0059 44.636C65.9488 44.7665 65.8748 44.8822 65.6865 44.8822H64.0852C63.954 44.8822 63.8673 44.8106 63.8673 44.6928C63.8673 44.6486 63.8821 44.6065 63.8969 44.5624L67.8865 35.4792C68.483 34.1327 69.3715 34.0022 70.1732 34.0022C70.9157 34.0022 71.8337 34.2631 71.9353 35.4792L72.7222 44.5624C72.7222 44.5771 72.7222 44.5771 72.7222 44.5918C72.718 44.7517 72.6608 44.8822 72.4133 44.8822ZM70.1266 35.9295C70.1118 35.7549 70.0822 35.6981 69.9384 35.6981C69.7945 35.6981 69.7353 35.7549 69.6613 35.9295L67.8547 40.2323H70.4186L70.1266 35.9295Z" fill="white"/>
        <path d="M82.2723 34.4523L79.1712 39.4788C78.7778 40.1164 78.4435 40.4341 78.0945 40.5645L77.3816 44.5916C77.352 44.7516 77.206 44.882 77.0474 44.882H75.592C75.4313 44.882 75.3445 44.781 75.3741 44.5916L76.087 40.5645C75.7951 40.4341 75.5476 40.1164 75.3889 39.4788L74.0774 34.4523C74.0203 34.2503 74.107 34.1199 74.3397 34.1199H75.8691C76.0003 34.1199 76.087 34.1767 76.1314 34.3513L77.1214 38.6688C77.1807 38.915 77.223 38.9297 77.3118 38.9297C77.4578 38.9297 77.4874 38.915 77.6312 38.6688L80.1358 34.3513C80.2374 34.1767 80.3685 34.1199 80.4997 34.1199H82.1158C82.247 34.1199 82.3189 34.1914 82.3189 34.3092C82.3147 34.3513 82.302 34.3955 82.2723 34.4523Z" fill="white"/>
        <path d="M91.7241 34.1199C91.8849 34.1199 92.0012 34.1767 91.9568 34.3955L90.1947 44.3034C90.1376 44.6211 89.8309 44.882 89.5094 44.882H88.1407C87.7917 44.882 87.485 44.882 87.339 44.3602L85.2554 37.3054C85.2258 37.2191 85.1983 37.1897 85.1538 37.1897C85.1094 37.1897 85.0671 37.2191 85.0523 37.3054L83.7704 44.5916C83.7408 44.7516 83.6985 44.882 83.4362 44.882H82.1987C82.0527 44.882 81.9216 44.8105 81.966 44.5916L83.7133 34.6985C83.7725 34.3808 84.0771 34.1199 84.3987 34.1199H85.8688C86.1756 34.1199 86.3067 34.2061 86.4231 34.5828L88.6082 42.0289C88.623 42.1005 88.6526 42.1447 88.6949 42.1447C88.7246 42.1447 88.7817 42.1005 88.7965 42.0142L90.1503 34.3955C90.1799 34.2356 90.2667 34.1199 90.4697 34.1199H91.7241Z" fill="white"/>
        <path d="M101.41 38.5238L101.076 40.4805C100.494 43.8554 98.6731 45 96.1241 45C94.0405 45 92.6718 43.8407 92.6718 41.5957C92.6718 41.2485 92.7014 40.8866 92.7733 40.4805L93.1076 38.5238C93.6893 35.1341 95.5106 34.0043 98.0596 34.0043C100.143 34.0043 101.512 35.2351 101.512 37.4507C101.512 37.7852 101.467 38.1471 101.41 38.5238ZM97.755 35.7569C96.2404 35.7569 95.4831 36.5544 95.1489 38.5238L94.8147 40.4805C94.7428 40.9013 94.7131 41.2632 94.7131 41.5662C94.7131 42.8265 95.2949 43.2473 96.4308 43.2473C97.975 43.2473 98.7175 42.3636 99.0369 40.4805L99.3712 38.5238C99.4431 38.1177 99.4727 37.7558 99.4727 37.4528C99.4727 36.2051 98.9037 35.7569 97.755 35.7569Z" fill="white"/>
        <path d="M114.78 34.1199C114.97 34.1199 115.027 34.2061 114.983 34.366L111.939 43.8258C111.647 44.739 111.181 44.9999 110.424 44.9999H109.682C109.026 44.9999 108.736 44.6821 108.677 43.8405L108.37 39.0602C108.355 38.9297 108.37 38.9002 108.313 38.9002C108.254 38.9002 108.241 38.9297 108.182 39.0602L106.187 43.8405C105.838 44.68 105.43 44.9999 104.774 44.9999H103.945C103.319 44.9999 102.809 44.6948 102.838 43.8258L103.145 34.366C103.145 34.2061 103.291 34.1199 103.437 34.1199H104.922C105.038 34.1199 105.14 34.1767 105.125 34.3808L104.645 43.0284C104.645 43.1588 104.645 43.2451 104.717 43.2451C104.774 43.2451 104.804 43.1588 104.863 43.0284L107.004 37.945C107.15 37.5979 107.412 37.2928 108.038 37.2928H109.043C109.669 37.2928 109.815 37.5979 109.845 37.945L110.208 43.0284C110.223 43.1588 110.223 43.2451 110.266 43.2451C110.31 43.2451 110.325 43.1588 110.367 43.0284L112.946 34.3808C112.99 34.2209 113.047 34.1199 113.238 34.1199H114.78Z" fill="white"/>
    </g>
    <defs>
        <radialGradient id="paint0_radial_150_5" cx="0" cy="0" r="1" gradientUnits="userSpaceOnUse" gradientTransform="translate(66.3651 12.5412) scale(23.0011 22.9889)">
            <stop offset="1.70489e-07" stop-color="#21A4FC"/>
            <stop offset="1" stop-color="#156CD1"/>
        </radialGradient>
        <clipPath id="clip0_150_5">
            <rect width="115" height="45" fill="white"/>
        </clipPath>
    </defs>
</svg>
